<svg width="1440" height="1936" viewBox="0 0 1440 1936" fill="none" xmlns="http://www.w3.org/2000/svg">
<g clip-path="url(#clip0_306_70062)">
<path d="M480 0H0V484H480V0Z" stroke="#F3A8BF" stroke-miterlimit="10"/>
<path d="M0 403.33H480" stroke="#F3A8BF" stroke-miterlimit="10"/>
<path d="M0 322.67H480" stroke="#F3A8BF" stroke-miterlimit="10"/>
<path d="M0 242H480" stroke="#F3A8BF" stroke-miterlimit="10"/>
<path d="M0 161.33H480" stroke="#F3A8BF" stroke-miterlimit="10"/>
<path d="M0 80.67H480" stroke="#F3A8BF" stroke-miterlimit="10"/>
<path d="M400 0V484" stroke="#F3A8BF" stroke-miterlimit="10"/>
<path d="M320 0V484" stroke="#F3A8BF" stroke-miterlimit="10"/>
<path d="M240 0V484" stroke="#F3A8BF" stroke-miterlimit="10"/>
<path d="M160 0V484" stroke="#F3A8BF" stroke-miterlimit="10"/>
<path d="M80 0V484" stroke="#F3A8BF" stroke-miterlimit="10"/>
<path d="M960 0H480V484H960V0Z" stroke="#F3A8BF" stroke-miterlimit="10"/>
<path d="M480 403.33H960" stroke="#F3A8BF" stroke-miterlimit="10"/>
<path d="M480 322.67H960" stroke="#F3A8BF" stroke-miterlimit="10"/>
<path d="M480 242H960" stroke="#F3A8BF" stroke-miterlimit="10"/>
<path d="M480 161.33H960" stroke="#F3A8BF" stroke-miterlimit="10"/>
<path d="M480 80.67H960" stroke="#F3A8BF" stroke-miterlimit="10"/>
<path d="M880 0V484" stroke="#F3A8BF" stroke-miterlimit="10"/>
<path d="M800 0V484" stroke="#F3A8BF" stroke-miterlimit="10"/>
<path d="M720 0V484" stroke="#F3A8BF" stroke-miterlimit="10"/>
<path d="M640 0V484" stroke="#F3A8BF" stroke-miterlimit="10"/>
<path d="M560 0V484" stroke="#F3A8BF" stroke-miterlimit="10"/>
<path d="M1440 0H960V484H1440V0Z" stroke="#F3A8BF" stroke-miterlimit="10"/>
<path d="M960 403.33H1440" stroke="#F3A8BF" stroke-miterlimit="10"/>
<path d="M960 322.67H1440" stroke="#F3A8BF" stroke-miterlimit="10"/>
<path d="M960 242H1440" stroke="#F3A8BF" stroke-miterlimit="10"/>
<path d="M960 161.33H1440" stroke="#F3A8BF" stroke-miterlimit="10"/>
<path d="M960 80.67H1440" stroke="#F3A8BF" stroke-miterlimit="10"/>
<path d="M1360 0V484" stroke="#F3A8BF" stroke-miterlimit="10"/>
<path d="M1280 0V484" stroke="#F3A8BF" stroke-miterlimit="10"/>
<path d="M1200 0V484" stroke="#F3A8BF" stroke-miterlimit="10"/>
<path d="M1120 0V484" stroke="#F3A8BF" stroke-miterlimit="10"/>
<path d="M1040 0V484" stroke="#F3A8BF" stroke-miterlimit="10"/>
<path d="M480 484H0V968H480V484Z" stroke="#F3A8BF" stroke-miterlimit="10"/>
<path d="M0 887.33H480" stroke="#F3A8BF" stroke-miterlimit="10"/>
<path d="M0 806.67H480" stroke="#F3A8BF" stroke-miterlimit="10"/>
<path d="M0 726H480" stroke="#F3A8BF" stroke-miterlimit="10"/>
<path d="M0 645.33H480" stroke="#F3A8BF" stroke-miterlimit="10"/>
<path d="M0 564.67H480" stroke="#F3A8BF" stroke-miterlimit="10"/>
<path d="M400 484V968" stroke="#F3A8BF" stroke-miterlimit="10"/>
<path d="M320 484V968" stroke="#F3A8BF" stroke-miterlimit="10"/>
<path d="M240 484V968" stroke="#F3A8BF" stroke-miterlimit="10"/>
<path d="M160 484V968" stroke="#F3A8BF" stroke-miterlimit="10"/>
<path d="M80 484V968" stroke="#F3A8BF" stroke-miterlimit="10"/>
<path d="M960 484H480V968H960V484Z" stroke="#F3A8BF" stroke-miterlimit="10"/>
<path d="M480 887.33H960" stroke="#F3A8BF" stroke-miterlimit="10"/>
<path d="M480 806.67H960" stroke="#F3A8BF" stroke-miterlimit="10"/>
<path d="M480 726H960" stroke="#F3A8BF" stroke-miterlimit="10"/>
<path d="M480 645.33H960" stroke="#F3A8BF" stroke-miterlimit="10"/>
<path d="M480 564.67H960" stroke="#F3A8BF" stroke-miterlimit="10"/>
<path d="M880 484V968" stroke="#F3A8BF" stroke-miterlimit="10"/>
<path d="M800 484V968" stroke="#F3A8BF" stroke-miterlimit="10"/>
<path d="M720 484V968" stroke="#F3A8BF" stroke-miterlimit="10"/>
<path d="M640 484V968" stroke="#F3A8BF" stroke-miterlimit="10"/>
<path d="M560 484V968" stroke="#F3A8BF" stroke-miterlimit="10"/>
<path d="M1440 484H960V968H1440V484Z" stroke="#F3A8BF" stroke-miterlimit="10"/>
<path d="M960 887.33H1440" stroke="#F3A8BF" stroke-miterlimit="10"/>
<path d="M960 806.67H1440" stroke="#F3A8BF" stroke-miterlimit="10"/>
<path d="M960 726H1440" stroke="#F3A8BF" stroke-miterlimit="10"/>
<path d="M960 645.33H1440" stroke="#F3A8BF" stroke-miterlimit="10"/>
<path d="M960 564.67H1440" stroke="#F3A8BF" stroke-miterlimit="10"/>
<path d="M1360 484V968" stroke="#F3A8BF" stroke-miterlimit="10"/>
<path d="M1280 484V968" stroke="#F3A8BF" stroke-miterlimit="10"/>
<path d="M1200 484V968" stroke="#F3A8BF" stroke-miterlimit="10"/>
<path d="M1120 484V968" stroke="#F3A8BF" stroke-miterlimit="10"/>
<path d="M1040 484V968" stroke="#F3A8BF" stroke-miterlimit="10"/>
<path d="M480 968H0V1452H480V968Z" stroke="#F3A8BF" stroke-miterlimit="10"/>
<path d="M0 1371.33H480" stroke="#F3A8BF" stroke-miterlimit="10"/>
<path d="M0 1290.67H480" stroke="#F3A8BF" stroke-miterlimit="10"/>
<path d="M0 1210H480" stroke="#F3A8BF" stroke-miterlimit="10"/>
<path d="M0 1129.33H480" stroke="#F3A8BF" stroke-miterlimit="10"/>
<path d="M0 1048.67H480" stroke="#F3A8BF" stroke-miterlimit="10"/>
<path d="M400 968V1452" stroke="#F3A8BF" stroke-miterlimit="10"/>
<path d="M320 968V1452" stroke="#F3A8BF" stroke-miterlimit="10"/>
<path d="M240 968V1452" stroke="#F3A8BF" stroke-miterlimit="10"/>
<path d="M160 968V1452" stroke="#F3A8BF" stroke-miterlimit="10"/>
<path d="M80 968V1452" stroke="#F3A8BF" stroke-miterlimit="10"/>
<path d="M960 968H480V1452H960V968Z" stroke="#F3A8BF" stroke-miterlimit="10"/>
<path d="M480 1371.33H960" stroke="#F3A8BF" stroke-miterlimit="10"/>
<path d="M480 1290.67H960" stroke="#F3A8BF" stroke-miterlimit="10"/>
<path d="M480 1210H960" stroke="#F3A8BF" stroke-miterlimit="10"/>
<path d="M480 1129.33H960" stroke="#F3A8BF" stroke-miterlimit="10"/>
<path d="M480 1048.67H960" stroke="#F3A8BF" stroke-miterlimit="10"/>
<path d="M880 968V1452" stroke="#F3A8BF" stroke-miterlimit="10"/>
<path d="M800 968V1452" stroke="#F3A8BF" stroke-miterlimit="10"/>
<path d="M720 968V1452" stroke="#F3A8BF" stroke-miterlimit="10"/>
<path d="M640 968V1452" stroke="#F3A8BF" stroke-miterlimit="10"/>
<path d="M560 968V1452" stroke="#F3A8BF" stroke-miterlimit="10"/>
<path d="M1440 968H960V1452H1440V968Z" stroke="#F3A8BF" stroke-miterlimit="10"/>
<path d="M960 1371.33H1440" stroke="#F3A8BF" stroke-miterlimit="10"/>
<path d="M960 1290.67H1440" stroke="#F3A8BF" stroke-miterlimit="10"/>
<path d="M960 1210H1440" stroke="#F3A8BF" stroke-miterlimit="10"/>
<path d="M960 1129.33H1440" stroke="#F3A8BF" stroke-miterlimit="10"/>
<path d="M960 1048.67H1440" stroke="#F3A8BF" stroke-miterlimit="10"/>
<path d="M1360 968V1452" stroke="#F3A8BF" stroke-miterlimit="10"/>
<path d="M1280 968V1452" stroke="#F3A8BF" stroke-miterlimit="10"/>
<path d="M1200 968V1452" stroke="#F3A8BF" stroke-miterlimit="10"/>
<path d="M1120 968V1452" stroke="#F3A8BF" stroke-miterlimit="10"/>
<path d="M1040 968V1452" stroke="#F3A8BF" stroke-miterlimit="10"/>
<path d="M480 1452H0V1936H480V1452Z" stroke="#F3A8BF" stroke-miterlimit="10"/>
<path d="M0 1855.33H480" stroke="#F3A8BF" stroke-miterlimit="10"/>
<path d="M0 1774.67H480" stroke="#F3A8BF" stroke-miterlimit="10"/>
<path d="M0 1694H480" stroke="#F3A8BF" stroke-miterlimit="10"/>
<path d="M0 1613.33H480" stroke="#F3A8BF" stroke-miterlimit="10"/>
<path d="M0 1532.67H480" stroke="#F3A8BF" stroke-miterlimit="10"/>
<path d="M400 1452V1936" stroke="#F3A8BF" stroke-miterlimit="10"/>
<path d="M320 1452V1936" stroke="#F3A8BF" stroke-miterlimit="10"/>
<path d="M240 1452V1936" stroke="#F3A8BF" stroke-miterlimit="10"/>
<path d="M160 1452V1936" stroke="#F3A8BF" stroke-miterlimit="10"/>
<path d="M80 1452V1936" stroke="#F3A8BF" stroke-miterlimit="10"/>
<path d="M960 1452H480V1936H960V1452Z" stroke="#F3A8BF" stroke-miterlimit="10"/>
<path d="M480 1855.33H960" stroke="#F3A8BF" stroke-miterlimit="10"/>
<path d="M480 1774.67H960" stroke="#F3A8BF" stroke-miterlimit="10"/>
<path d="M480 1694H960" stroke="#F3A8BF" stroke-miterlimit="10"/>
<path d="M480 1613.33H960" stroke="#F3A8BF" stroke-miterlimit="10"/>
<path d="M480 1532.67H960" stroke="#F3A8BF" stroke-miterlimit="10"/>
<path d="M880 1452V1936" stroke="#F3A8BF" stroke-miterlimit="10"/>
<path d="M800 1452V1936" stroke="#F3A8BF" stroke-miterlimit="10"/>
<path d="M720 1452V1936" stroke="#F3A8BF" stroke-miterlimit="10"/>
<path d="M640 1452V1936" stroke="#F3A8BF" stroke-miterlimit="10"/>
<path d="M560 1452V1936" stroke="#F3A8BF" stroke-miterlimit="10"/>
<path d="M1440 1452H960V1936H1440V1452Z" stroke="#F3A8BF" stroke-miterlimit="10"/>
<path d="M960 1855.33H1440" stroke="#F3A8BF" stroke-miterlimit="10"/>
<path d="M960 1774.67H1440" stroke="#F3A8BF" stroke-miterlimit="10"/>
<path d="M960 1694H1440" stroke="#F3A8BF" stroke-miterlimit="10"/>
<path d="M960 1613.33H1440" stroke="#F3A8BF" stroke-miterlimit="10"/>
<path d="M960 1532.67H1440" stroke="#F3A8BF" stroke-miterlimit="10"/>
<path d="M1360 1452V1936" stroke="#F3A8BF" stroke-miterlimit="10"/>
<path d="M1280 1452V1936" stroke="#F3A8BF" stroke-miterlimit="10"/>
<path d="M1200 1452V1936" stroke="#F3A8BF" stroke-miterlimit="10"/>
<path d="M1120 1452V1936" stroke="#F3A8BF" stroke-miterlimit="10"/>
<path d="M1040 1452V1936" stroke="#F3A8BF" stroke-miterlimit="10"/>
</g>
<defs>
<clipPath id="clip0_306_70062">
<rect width="1440" height="1936" fill="white"/>
</clipPath>
</defs>
</svg>
