<svg width="598" height="402" viewBox="0 0 598 402" fill="none" xmlns="http://www.w3.org/2000/svg">
<g clip-path="url(#clip0_362_15811)">
<path d="M598.015 384.883C566.742 384.883 521.486 392.679 491.559 382.938C461.631 373.196 443.757 335.005 410.334 334.668C375.683 334.361 354.751 373.752 323.127 382.938C291.123 392.182 249.553 384.883 216.437 384.883V3.30574C248.046 3.30574 293.23 -5.64605 323.01 5.96788C355.044 18.4594 370.227 72.0532 407.219 72.0532C444.211 72.0532 459.262 18.4594 491.427 5.96788C520.052 -5.14872 567.634 3.30574 598.015 3.30574V384.883Z" fill="#3F76D8"/>
<path d="M147.558 67.8991L111.502 38.2792L84.8957 76.5729L38.3669 73.8377L39.303 120.454L0.0438805 145.613L28.1279 182.766L11.1751 226.194L55.8317 239.694L67.5334 284.834L111.59 269.475L147.69 299.095L174.297 260.787L220.869 263.551L219.933 216.92L259.236 191.776L231.079 154.609L248.046 111.181L203.361 97.6799L191.659 52.5406L147.558 67.8991ZM233.171 187.139L196.603 204.472L202.527 244.507L162.697 237.018L144.048 272.913L116.256 243.454L80.0249 261.503L74.9347 221.367L35.0173 214.653L54.3397 179.153L26.0216 150.235L62.5894 132.902L56.6508 92.8529L96.4365 100.342L115.145 64.4471L142.936 93.9061L179.182 75.8416L184.331 115.993L224.248 122.707L204.853 158.236L233.171 187.139Z" fill="#FBC2D3"/>
<path d="M200.699 229.192L201.635 228.066L294.605 182.853L465.61 99.6691L158.163 207.939L158.134 207.954L175.233 324.59L190.401 267.793L200.699 229.192Z" fill="#D8D8D8"/>
<path d="M188.119 218.28C188.938 222.668 189.582 227.203 190.255 231.679C190.928 236.155 191.454 240.63 191.995 245.106C192.537 249.582 193.005 254.087 193.458 258.593L194.043 265.336C194.189 267.603 194.38 269.855 194.482 272.108C194.058 269.885 193.721 267.647 193.341 265.423L192.346 258.724C191.688 254.248 191.147 249.758 190.606 245.282C190.065 240.806 189.582 236.301 189.143 231.81C188.704 227.32 188.339 222.8 188.119 218.28Z" fill="black"/>
<path d="M187.285 252.376C188.428 256.769 189.298 261.229 189.889 265.731C190.561 270.221 190.947 274.75 191.045 279.29C188.832 270.479 187.572 261.456 187.285 252.376Z" fill="black"/>
<path d="M191.235 270.309L176.198 326.609L256.647 276.482L201.942 230.231L191.235 270.309Z" fill="#D8D8D8"/>
<path d="M157.417 206.652L478.263 93.5257L478.818 94.8714L202.863 229.104L307.52 317.569L491.529 86.6071L78.4305 153.585L157.417 206.652Z" fill="#F6F6F6"/>
<path d="M156.642 207.895L174.282 328.174L175.657 328.686L257.832 277.491L307.725 319.661L495.04 84.5593L74.5397 152.736L156.642 207.895ZM175.233 324.59L158.134 207.954L465.566 99.713L294.605 182.853L201.635 228.08L200.699 229.207L190.46 267.793L175.233 324.59ZM176.213 326.609L191.235 270.309L201.942 230.245L256.662 276.496L176.213 326.609ZM307.506 317.569L202.849 229.104L478.804 94.8714L478.248 93.5257L157.432 206.652L78.4452 153.585L491.559 86.6071L307.506 317.569Z" fill="#212121"/>
<path d="M173.024 230.786C174.106 236.637 175.028 242.4 175.949 248.237C176.871 254.073 177.632 259.938 178.48 265.789C179.328 271.64 179.943 277.491 180.674 283.342L181.654 292.118C181.917 295.043 182.239 297.969 182.473 300.894C181.917 297.969 181.449 295.043 181.01 292.191L179.636 283.415C178.729 277.564 177.953 271.713 177.105 265.862C176.257 260.011 175.642 254.16 174.911 248.31C174.18 242.459 173.507 236.666 173.024 230.786Z" fill="black"/>
<path d="M484.757 359.461C485.137 359.329 484.903 359.022 483.909 359.154L483.25 359.681L484.757 359.461Z" fill="#3D3D3D"/>
<path d="M478.058 360.397C477.631 360.785 477.257 361.228 476.946 361.714C476.756 362.109 476.785 362.372 477.209 362.314C477.43 361.921 477.712 361.566 478.043 361.26C478.306 360.968 478.584 360.705 479.038 360.193C479.915 359.637 480.749 359.666 480.632 359.871C480.922 359.715 481.232 359.602 481.554 359.534C481.93 359.494 482.291 359.363 482.607 359.154C481.808 359.111 481.009 359.228 480.256 359.497C479.503 359.765 478.81 360.181 478.219 360.719C477.794 360.836 478.029 360.529 478.058 360.397Z" fill="#3D3D3D"/>
<path d="M415.6 362.211L416.053 362.738C415.916 362.55 415.765 362.374 415.6 362.211V362.211Z" fill="#3D3D3D"/>
<path d="M372.377 396.468C372.757 396.205 372.889 396.058 372.874 396.014C372.538 396.278 372.275 396.483 372.377 396.468Z" fill="#3D3D3D"/>
<path d="M362.855 397.609L363.396 397.755C363.228 397.667 363.043 397.618 362.855 397.609Z" fill="#3D3D3D"/>
<path d="M415.6 362.211C415.222 361.762 414.817 361.337 414.386 360.938C414.167 360.997 415.044 361.553 415.6 362.211Z" fill="#3D3D3D"/>
<path d="M470.042 371.602C470.18 371.329 470.292 371.046 470.379 370.753L469.998 371.514L470.042 371.602Z" fill="#3D3D3D"/>
<path d="M430.125 386.287L430.388 386.741C430.505 386.842 430.633 386.93 430.768 387.004L430.125 386.287Z" fill="#3D3D3D"/>
<path d="M445.205 398.281C444.766 398.281 444.591 398.647 444.401 398.823C444.72 398.68 445.061 398.591 445.41 398.559C445.425 398.559 445.352 398.384 445.205 398.281Z" fill="#3D3D3D"/>
<path d="M466.341 375.068L466.561 374.498L466.341 375.068Z" fill="#3D3D3D"/>
<path d="M423.294 372.523C423.324 372.443 423.324 372.355 423.294 372.274C423.294 372.274 423.279 372.391 423.294 372.523Z" fill="#3D3D3D"/>
<path d="M24.2956 375.156C24.2956 375.156 24.2371 375.01 24.2956 375.156V375.156Z" fill="#3D3D3D"/>
<path d="M8.48372 358.379H8.83477C8.87904 358.307 8.90886 358.228 8.92254 358.145L8.48372 358.379Z" fill="#3D3D3D"/>
<path d="M350.758 384.356V384.444C351.08 384.868 350.934 384.62 350.758 384.356Z" fill="#3D3D3D"/>
<path d="M227.729 373.152C229.002 371.455 226.603 376.385 228.388 373.781C228.11 373.971 229.134 370.943 227.729 373.152Z" fill="#3D3D3D"/>
<path d="M469.72 372.055L469.325 372.816C469.473 372.571 469.605 372.317 469.72 372.055V372.055Z" fill="#3D3D3D"/>
<path d="M228.388 373.781L228.563 373.518L228.388 373.781Z" fill="#3D3D3D"/>
<path d="M316.969 359.724C317.155 359.707 317.338 359.663 317.511 359.593C317.511 359.593 317.35 359.578 316.969 359.724Z" fill="#3D3D3D"/>
<path d="M344.849 374.308L344.512 373.532C344.609 373.797 344.721 374.056 344.849 374.308V374.308Z" fill="#3D3D3D"/>
<path d="M306.789 374.922C306.555 375.268 306.363 375.642 306.218 376.034C306.264 375.986 306.304 375.931 306.335 375.873C306.43 375.532 306.584 375.21 306.789 374.922V374.922Z" fill="#3D3D3D"/>
<path d="M298.159 390.968L298.422 390.749L298.715 390.266C298.542 390.51 298.357 390.744 298.159 390.968V390.968Z" fill="#3D3D3D"/>
<path d="M65.193 388.321C64.9723 388.551 64.7153 388.744 64.4324 388.891C64.842 388.745 63.4963 391.246 65.193 388.321Z" fill="#3D3D3D"/>
<path d="M469.867 371.499C469.895 371.693 469.854 371.89 469.75 372.055L470.027 371.514C469.984 371.441 469.94 371.397 469.867 371.499Z" fill="#3D3D3D"/>
<path d="M309.363 377.043L308.032 379.632C308.427 378.915 308.968 377.964 309.363 377.043Z" fill="#3D3D3D"/>
<path d="M149.811 377.789L149.562 378.418C149.678 378.223 149.762 378.011 149.811 377.789V377.789Z" fill="#3D3D3D"/>
<path d="M304.127 387.501C303.731 387.921 303.369 388.371 303.044 388.847C302.996 388.959 302.967 389.077 302.957 389.198L304.127 387.501Z" fill="#3D3D3D"/>
<path d="M48.7521 401.733C50.3904 401.733 50.7414 401.412 50.7707 401.236C50.7999 401.061 50.522 400.885 50.7707 400.68L52.5698 400.227C52.9209 400.154 53.0671 400.154 53.1549 400.227C53.2427 400.3 53.1549 400.593 53.8863 400.49C55.5835 399.49 57.1299 398.254 58.4792 396.819C58.6254 396.819 58.8887 396.599 58.6839 396.95C59.4153 395.97 60.6294 394.727 61.6094 393.294C62.6141 392.017 63.4317 390.603 64.0375 389.096C64.122 389.003 64.2207 388.924 64.33 388.862C63.8766 389.096 63.5987 389.008 63.4816 388.862C64.1106 387.765 64.3593 386.668 64.9443 386.419C64.7322 386.776 64.6023 387.176 64.564 387.589C64.7396 387.179 64.9151 386.77 65.076 386.346C66.0999 385.541 64.3739 388.028 64.6811 388.203C65.8366 385.863 66.7874 382.996 67.782 381.285C68.411 381.138 65.8805 385.497 67.4456 383.332C66.9336 384.21 66.4217 385.102 65.8805 385.965C67.6796 384.254 64.9443 387.604 66.7142 386.082C68.7035 382.543 68.5134 381.928 70.3856 378.418C70.5319 377.496 69.8883 378.506 70.0346 377.584C70.5134 376.019 71.3728 374.596 72.5358 373.445C73.4503 372.61 74.1309 371.551 74.5105 370.373C74.5397 369.614 74.7219 368.87 75.0461 368.184C75.3704 367.497 75.83 366.884 76.3974 366.38C76.3974 366.745 76.295 367.111 76.2657 367.477C76.8538 366.717 77.3452 365.886 77.7284 365.005C77.9479 364.493 78.2258 363.937 79.7762 362.84C79.3813 363.396 77.8747 364.932 78.3135 364.581C80.3321 363.206 79.3082 363.118 80.7709 361.992L81.3706 362.196C82.9387 361.09 84.7405 360.359 86.6363 360.061C88.6455 359.714 90.7115 359.932 92.6042 360.69C92.3409 360.69 91.6388 360.69 92.4579 361.114C94.9632 362.222 97.1069 364.011 98.6452 366.277C100.241 368.612 101.608 371.096 102.726 373.693C103.18 374.234 103.618 374.79 104.057 375.346C104.277 375.785 104.291 376.238 104.057 375.814C104.862 377.789 104.35 375.814 104.964 376.633C105.52 377.716 105.447 378.184 104.964 377.555C106.953 380.787 110.332 387.004 112.278 390.719L111.751 390.09C112.291 391.111 113.026 392.016 113.916 392.752C114.282 393.047 114.624 393.37 114.94 393.718C115.379 394.164 115.771 394.654 116.11 395.18L115.671 394.786C118.01 397.734 121.324 399.752 125.018 400.475C128.358 401.024 131.785 400.581 134.877 399.203C135.898 398.271 136.968 397.392 138.08 396.57C139.367 395.429 140.391 394.142 140.215 393.718C141.678 392.255 142.117 391.728 142.731 391.041C143.768 389.792 144.702 388.462 145.525 387.062C146.271 385.761 146.081 384.854 146.827 383.201L147.251 383.362L147.909 380.934L148.962 379.998L149.591 378.432C149.27 379.032 148.787 379.632 148.714 379.486C149.483 377.45 150.624 375.575 152.078 373.957C152.886 372.097 153.789 370.281 154.784 368.515C154.616 369.152 154.371 369.767 154.053 370.344C155.354 367.418 154.74 370.095 156.013 367.418C155.691 367.667 155.91 367.096 155.881 366.979C157.411 365.247 159.085 363.647 160.884 362.196L160.693 362.694C162.37 361.506 164.325 360.771 166.369 360.558C168.554 360.323 170.759 360.762 172.688 361.816C171.327 360.968 171.839 360.617 173.112 361.202C173.207 361.43 173.285 361.664 173.346 361.904C174.238 362.138 172.22 360.953 173.96 361.655C174.706 362.152 174.823 362.503 174.706 362.577C174.589 362.65 174.18 362.577 173.712 362.328C174.326 362.68 174.917 363.071 175.481 363.498C175.481 363.674 175.043 363.425 174.838 363.498C175.73 363.805 177.09 366.424 178.217 367.155V367.345C180.43 370.447 182.387 373.725 184.068 377.145C184.477 377.028 185.121 378.608 185.969 379.544C187.225 382.79 188.691 385.951 190.357 389.008C191.952 391.217 191.074 389.505 191.908 390.471C191.659 390.851 193.955 394.025 192.551 392.518C193.642 394.046 194.892 395.453 196.281 396.716C197.967 398.235 199.964 399.368 202.132 400.037C201.518 399.7 200.889 399.305 201.284 399.349C202.322 399.73 203.639 400.329 203.448 400.446H203.141C204.98 400.772 206.851 400.875 208.714 400.753C210.69 400.581 212.618 400.051 214.404 399.188C216.064 398.319 217.583 397.205 218.909 395.883C219.996 394.784 220.909 393.527 221.615 392.153L221.484 392.416C222.405 390.852 223.245 389.241 224 387.589C225.257 385.453 223.531 389.052 224.628 387.589C226.823 382.192 228.739 379.486 230.479 375.171C232.121 372.991 233.617 370.704 234.955 368.325C236.337 365.839 238.41 363.807 240.923 362.474L240.587 362.386C240.837 362.071 241.198 361.862 241.596 361.801C241.888 361.801 242.152 361.699 242.532 361.597C242.342 361.421 241.376 361.904 241.932 361.465C244.066 360.392 246.502 360.082 248.836 360.587C251.236 361.095 253.416 362.343 255.067 364.156C258.607 367.813 260.918 372.933 263.2 377.774C264.897 381.402 265.38 379.237 267.076 384.064L266.009 382.981C268.003 386.71 270.221 390.315 272.649 393.776C273.975 395.572 275.557 397.164 277.345 398.501C279.194 399.858 281.359 400.724 283.634 401.017C283.147 401.097 282.648 401.072 282.171 400.944C282.768 401.198 283.391 401.384 284.029 401.499C284.809 401.609 285.597 401.653 286.384 401.631C287.053 401.574 287.717 401.477 288.373 401.338C288.871 401.192 289.178 401.046 289.163 400.973C290.538 400.724 289.544 401.163 290.436 401.119C290.935 400.988 291.423 400.822 291.899 400.622C292.405 400.378 292.894 400.1 293.361 399.788C294.033 399.26 294.759 398.804 295.526 398.428C295.702 398.428 295.16 398.823 294.868 399.042C295.365 398.647 296.491 397.755 297.281 396.98C298.071 396.204 298.583 395.517 298.042 395.853C300.382 393.63 301.582 390.997 303.03 389.037C303.454 387.443 305.692 384.547 305.341 383.815C305.853 384.313 308.135 379.325 308.661 377.526C308.573 378.169 309.568 376.151 309.495 376.94C310.431 375.024 311.221 373.269 310.753 373.43C311.87 371.937 312.849 370.346 313.678 368.676C314.222 367.35 315.182 366.236 316.414 365.502C318.036 363.249 320.299 361.536 322.908 360.587C325.441 359.826 328.153 359.913 330.631 360.836C330.412 361.114 329.168 360.587 327.779 360.412C327.182 360.34 326.58 360.315 325.98 360.339C325.497 360.412 325.204 360.529 325.278 360.704C327.301 360.426 329.363 360.678 331.26 361.436C333.248 362.299 334.98 363.659 336.292 365.385C337.082 366.438 335.59 364.99 335.209 364.756C336.977 366.548 338.488 368.576 339.7 370.782C340.958 372.918 342.069 375.171 343.298 377.189C343.225 377.189 342.947 376.765 342.684 376.355C343.123 377.189 343.561 378.374 343.795 378.14L343.313 377.35C343.035 375.785 345.785 380.349 346.063 380.407C344.6 379.325 347.979 384.795 345.873 382.967C346.194 383.523 346.692 384.166 346.794 383.947C347.174 384.81 347.204 385.132 346.575 384.386C348.315 387.384 348.037 386.141 349.5 388.891C349.368 388.891 349.003 388.423 348.696 388.233C349.986 389.738 351.183 391.32 352.279 392.972C352.104 392.884 352.279 393.206 351.709 392.562C352.989 394.286 354.534 395.797 356.287 397.038C358.13 398.376 360.188 399.39 362.372 400.037C360.69 400.3 364.083 400.666 364.347 401.104C364.829 401.104 365.327 401.104 365.809 401.104L367.272 400.929L366.087 400.739C368.373 400.535 370.588 399.841 372.582 398.706C372.07 399.042 371.558 399.408 371.017 399.729C372.434 399.086 373.75 398.238 374.922 397.214C374.212 397.716 373.464 398.161 372.684 398.545C373.649 397.755 373.489 397.652 373.445 397.535C373.401 397.418 373.445 397.345 374.746 396.394C374.322 396.863 376.531 394.844 377.511 394.054C378.191 392.863 378.943 391.715 379.764 390.617C380.173 390.339 380.071 391.246 380.334 391.07C380.627 389.871 383.069 386.243 383.259 384.722C383.142 385.205 383.391 385.366 383.508 385.249L383.61 384.225C384.21 383.318 384.342 383.201 384.459 383.464C385.922 380.539 383.391 384.078 385.351 380.758C385.3 381.018 385.227 381.272 385.132 381.519C386.975 378.125 388.145 374.688 390.017 371.704C390.983 371.06 388.671 374.468 389.651 373.635C390.746 371.324 391.971 369.077 393.323 366.906C394.601 364.779 396.328 362.957 398.384 361.567C398.135 361.714 397.872 361.845 397.623 362.006C397.623 361.523 398.457 361.026 399.51 360.675C400.057 360.461 400.619 360.29 401.192 360.163L402.07 359.9C402.362 359.833 402.65 359.749 402.933 359.651C402.377 359.827 402.304 360.222 402.421 360.105C404.042 359.774 405.704 359.69 407.35 359.856C409.462 360.068 411.481 360.835 413.201 362.079C413.003 361.991 412.798 361.923 412.587 361.875C414.418 363.383 416.028 365.14 417.37 367.096C417.882 367.491 418.525 368.559 418.364 367.755C420.997 373.766 424.8 378.564 426.687 384.269C426.366 383.64 425.766 382.806 426.029 383.332C426.834 384.795 427.667 386.258 428.545 387.721C428.647 387.209 428.399 387.048 428.135 385.98C428.862 386.825 429.509 387.736 430.066 388.701C428.735 386.843 429.583 388.993 429.964 389.929C429.964 389.739 430.242 389.929 430.286 389.842C430.724 391.129 430.973 391.114 431.251 391.202C431.529 391.29 431.88 391.465 432.831 393.016H432.567C433.474 394.04 434.484 394.8 435.493 395.839C435.654 396.555 434.337 394.961 434.03 395.107C435.493 396.57 437.526 397.301 438.974 398.472C438.494 398.312 438.037 398.091 437.614 397.813C437.146 397.535 436.678 397.272 436.312 397.009C437.121 398.059 438.19 398.881 439.413 399.393L439.281 399.32C440.378 399.883 441.543 400.301 442.748 400.563L441.841 400.256C442.572 400.154 443.304 400.168 443.933 400.095H445L446.068 400.007C447.67 399.963 449.225 399.454 450.544 398.545C447.619 400.344 450.135 399.101 450.091 399.612C451.012 399.408 452.329 398.808 452.036 399.13C453.323 397.945 454.742 397.784 456.088 395.663C456.293 395.663 457.302 394.332 457.331 394.859C458.691 393.103 456.79 395.093 456.79 394.859C458.648 392.08 461.909 388.803 463.431 384.269C465.01 380.524 464.893 379.646 466.356 376.18C467.117 375.156 466.356 377.335 466.356 377.335C467.32 375.789 468.151 374.165 468.843 372.479C468.843 372.874 469.062 372.567 469.472 372.143C470.203 370.812 469.472 370.987 470.73 369.378C470.688 369.918 470.59 370.453 470.437 370.973C471.157 369.321 471.993 367.723 472.938 366.19C473.436 365.955 472.558 367.287 472.353 367.916C472.616 367.477 472.938 366.979 473.275 366.453C473.611 365.926 473.962 365.444 474.313 364.99C474.842 364.358 475.303 363.671 475.688 362.942L474.65 363.776C475.176 363.235 475.162 363.776 474.825 364.171C473.889 365.634 473.099 366.014 472.924 366.014C473.154 365.641 473.403 365.28 473.67 364.932C472.636 365.547 471.83 366.481 471.373 367.594C470.642 368.91 470.013 370.519 469.34 371.602V370.329C469.033 371.221 468.726 372.099 468.462 372.991C468.038 373.43 467.555 373.635 468.097 372.421C466.912 373.986 467.497 374.03 466.444 375.346C466.312 375.478 466.327 375.346 466.444 375.229L465.771 376.999C465.771 376.619 465.244 377.101 465.771 376.092C463.972 379.018 463.796 381.197 462.846 382.133L462.948 381.87C461.017 386.126 463.153 382.469 461.997 385.834C461.31 386.375 460.534 386.887 459.891 387.37L460.052 387.999C459.803 388.408 459.262 389.198 459.203 388.949C458.531 390.631 459.54 388.788 459.203 389.827C458.413 390.705 457.536 392.036 456.687 393.118C456.311 393.582 455.906 394.022 455.473 394.434C455.079 394.756 454.771 394.932 454.552 394.888C454.201 395.707 456.307 393.528 454.713 395.429C454.216 395.429 453.704 395.868 453.075 396.497C452.369 397.208 451.508 397.744 450.559 398.062C450.983 397.448 452.709 396.672 450.793 397.36C450.542 397.673 450.221 397.923 449.857 398.091C449.379 398.264 448.89 398.406 448.394 398.515L446.829 398.662C446.342 398.621 445.853 398.621 445.366 398.662C445.366 398.954 444.401 398.998 443.114 398.866C441.674 398.623 440.276 398.18 438.959 397.55C439.091 397.55 437.892 396.833 436.634 395.649C435.36 394.482 434.244 393.154 433.313 391.699H433.43C432.641 391.699 431.134 389.198 430.008 387.443C430.329 387.34 430.607 387.618 431.324 388.496C430.973 387.955 430.651 387.384 430.344 386.828C429.755 386.279 429.261 385.637 428.881 384.927L429.481 385.176C427.941 382.73 426.587 380.173 425.429 377.526C425.005 377.526 425.663 380.451 423.879 377.291C423.996 377.087 424.259 376.809 424.742 377.613C424.414 377.156 424.134 376.666 423.908 376.151L424.844 377.277C424.303 375.814 424.23 376.677 423.718 375.566C423.996 375.448 423.499 374.644 423.718 374.703C423.911 375.183 424.141 375.647 424.405 376.092C423.873 374.986 423.451 373.83 423.148 372.64C423.06 372.83 422.811 372.816 422.299 371.938C420.997 369.612 422.153 370.973 421.524 369.539C421.041 369.071 420.295 367.506 419.915 367.696C419.659 367.347 419.511 366.929 419.491 366.497C419.023 365.97 418.028 364.639 417.165 363.718C416.302 362.796 415.571 362.255 415.98 362.942L416.214 363.22L416.039 363.059C414.308 361.432 412.334 360.084 410.188 359.066C408 358.074 405.57 357.744 403.196 358.115V357.969C401.753 358.253 400.358 358.746 399.057 359.432C398.449 359.742 397.876 360.115 397.345 360.543C396.885 360.876 396.467 361.264 396.102 361.699C395.458 362.167 394.552 362.796 394.639 362.416C393.177 363.995 393.177 364.259 391.275 366.526C392.27 364.683 390.646 366.965 392.387 364.698C390.924 366.174 389.775 367.93 389.008 369.861C389.169 368.822 387.545 371.324 387.121 372.552L388.233 371.09C387.604 372.377 387.004 373.459 386.404 374.556L386.287 373.737C383.362 378.315 382.967 382.952 380.144 386.024C379.764 387.487 381.709 383.61 381.475 384.898C380.446 386.522 379.266 388.045 377.95 389.447C377.273 390.263 376.721 391.175 376.312 392.153C375.874 393.159 375.202 394.047 374.352 394.742C374.556 394.654 374.82 394.625 374.82 394.844C374.82 395.063 374.556 395.59 373.576 396.453C371.543 397.843 370.753 397.404 371.923 396.555C372.377 396.248 372.626 396.146 372.64 396.204C373.211 395.707 373.898 395.02 373.079 395.458L372.962 395.78C372.713 395.941 372.348 396.117 371.967 396.336C371.599 396.576 371.207 396.777 370.797 396.936C370.066 397.272 369.495 397.389 369.773 397.14C368.311 397.799 369.203 397.696 370.388 397.257C369.729 397.535 369.1 397.638 368.53 397.843C367.959 398.047 367.418 398.077 366.862 398.15C365.627 398.307 364.373 398.238 363.162 397.945C363.601 398.135 363.996 398.428 363.542 398.325L362.24 398.018C361.904 397.886 361.641 397.799 361.436 397.74C361.184 397.663 360.924 397.614 360.661 397.594C359.982 397.581 359.325 397.351 358.788 396.936C358.13 396.351 358.349 396.307 358.393 396.219C358.437 396.131 358.306 396.043 357.062 395.151C355.834 393.689 357.062 394.595 357.72 394.903C355.927 393.509 354.497 391.702 353.552 389.637C353.874 390.017 354.166 390.412 354.517 390.763C353.975 390.178 353.486 389.547 353.054 388.876L353.245 389.768C352.791 389.022 352.411 388.306 352.543 388.306C351.87 387.633 352.425 389.213 351.197 387.808C350.743 386.682 349.237 384.664 349.456 384.078C351.109 387.501 349.661 383.508 351.255 386.273C350.838 385.644 350.481 384.978 350.188 384.283C350.188 384.137 350.334 384.283 350.465 384.547C349.164 381.138 349.222 383.318 347.54 379.895C347.979 380.217 347.54 378.886 347.277 378.345C347.935 379.734 347.277 379.208 346.399 378.008C345.887 376.784 345.266 375.609 344.541 374.498L345.112 375.873C344.387 374.972 343.769 373.99 343.269 372.947C343.401 372.728 344.117 374.278 343.913 373.693C342.625 372.231 342.333 369.612 340.578 367.477C340.022 366.321 340.929 367.096 340.387 366.102C339.67 365.276 339.01 364.401 338.413 363.483C337.783 362.494 336.975 361.631 336.029 360.938C336.292 361.377 336.423 361.641 336.292 361.597C336.16 361.553 335.707 361.216 334.683 360.617C336.162 361.68 337.512 362.912 338.705 364.288C337.85 363.496 336.947 362.758 335.999 362.079C337.095 363.042 338.099 364.105 338.998 365.253C337.784 364.142 337.959 364.229 338.193 365.005C337.228 362.957 335.151 361.933 333.249 360.28L333.791 359.593C332.236 358.363 330.353 357.621 328.379 357.457C326.151 357.227 323.901 357.376 321.723 357.896C322.294 357.808 322.849 357.764 323.405 357.691C322.791 358.13 320.26 358.408 318.871 359.446C318.871 359.095 317.906 359.534 317.203 359.812C317.203 359.812 317.072 359.988 316.779 360.207L315.755 361.099C314.995 361.772 314.293 362.635 314.38 362.972C313.795 363.44 313.21 363.922 312.64 364.434C311.701 365.522 310.968 366.771 310.475 368.12C310.028 369.405 309.46 370.644 308.778 371.821C309.041 370.68 308.018 372.084 309.071 369.759C308.442 370.856 307.857 371.836 308.032 371.953C307.506 372.508 306.774 375.214 306.028 376.107C306.017 376.828 305.832 377.536 305.487 378.169C305.355 378.286 305.355 378.169 305.355 378.169C305.355 378.169 304.58 380.217 305.355 379.266C303.978 381.225 302.783 383.306 301.786 385.483C300.862 387.532 299.607 389.414 298.071 391.056C296.666 393.359 294.804 395.35 292.601 396.906C292.601 396.76 292.527 396.789 292.908 396.57C292.206 396.965 291.782 397.243 291.445 397.448C291.187 397.64 290.947 397.856 290.728 398.091C289.951 398.771 288.953 399.146 287.92 399.144C287.437 399.144 287.32 399.013 287.393 398.969C287.467 398.925 287.715 398.881 287.993 398.793C288.549 398.662 289.178 398.545 288.607 398.559C288.432 398.355 288.095 398.311 287.642 398.369C287.079 398.39 286.518 398.438 285.96 398.515C284.625 398.673 283.274 398.424 282.084 397.799L282.64 397.93C282.202 397.704 281.747 397.513 281.279 397.36C280.811 397.126 280.241 396.98 279.7 396.672C278.426 396.065 277.275 395.226 276.306 394.2C276.306 394.2 276.482 394.2 276.423 394.113C274.565 393.001 272.035 389.622 270.47 386.96C271.274 387.618 271.333 388.086 271.377 387.399C270.66 386.214 271.026 388.072 269.607 385.673C269.358 384.781 268.627 382.908 268.861 382.499L270.06 384.81C269.914 383.347 268.524 381.811 267.998 380.524H268.276C266.447 376.94 265.935 377.131 263.99 373.211V373.693C262.381 371.85 263.346 371.762 261.811 369.89L261.928 368.983C260.269 366.687 258.377 364.57 256.282 362.664C258.242 364.04 259.966 365.724 261.386 367.652C260.771 366.685 260.097 365.757 259.368 364.873C258.783 364.102 258.083 363.426 257.291 362.869C257.839 363.292 258.331 363.784 258.753 364.332C256.794 362.626 254.678 361.107 252.435 359.797C252.698 359.622 252.435 359.271 251.659 358.832C250.833 358.302 249.937 357.888 248.997 357.603C247.727 357.387 246.437 357.313 245.15 357.384C244.536 357.384 243.98 357.486 243.468 357.501H242.21C239.4 358.617 236.865 360.329 234.78 362.518C232.63 364.772 230.794 367.306 229.324 370.051C231.211 368.471 228.417 371.704 229.412 371.792C229.127 372.469 228.785 373.119 228.388 373.737C227.539 374.995 226.72 376.268 225.901 377.54C225.199 378.389 226.34 376.18 226.106 376.209C224.643 379.135 225.17 377.277 224.014 379.135C224.497 378.871 223.941 380.349 223.019 381.928L224.482 379.793C222.902 384.049 222.127 382.967 220.372 387.106L220.825 385.761C220.025 387.323 219.141 388.842 218.178 390.31C217.052 392.006 215.808 393.528 215.252 394.522C214.887 394.698 214.36 394.829 215.018 394.171C213.137 395.977 210.793 397.227 208.246 397.784C205.913 398.249 203.491 397.821 201.459 396.585H201.898C200.972 396.383 200.121 395.927 199.441 395.268C199.558 395.268 199.879 395.341 199.543 395.049C198.407 394.43 197.411 393.583 196.618 392.562L197.524 393.235C195.93 391.29 194.716 389.695 193.531 388.159C192.268 386.573 191.138 384.885 190.152 383.113C190.708 382.85 189.026 378.93 188.178 376.94H188.295C187.078 374.312 185.664 371.78 184.068 369.364C182.504 366.988 180.722 364.765 178.743 362.723C178.007 361.66 177.126 360.705 176.125 359.885C174.732 358.771 173.145 357.923 171.444 357.384C167.774 356.3 163.838 356.559 160.342 358.115C161.337 357.779 160.342 358.613 159.45 359.256C157.987 359.9 156.525 362.182 156.276 361.553L156.671 361.187C155.428 361.509 153.424 363.922 152.151 365.853L152.575 366.599C150.311 369.228 148.506 372.22 147.236 375.449C145.774 378.637 144.574 381.504 143.419 382.66C142.965 383.991 142.175 385.497 141.664 386.755L141.342 386.492C140.376 388.101 139.572 389.242 138.723 390.456C137.704 391.855 136.569 393.166 135.33 394.376C135.491 394.127 135.608 393.835 135.754 393.557C135.395 393.916 135.057 394.297 134.745 394.698L134.057 395.736C133.841 396.086 133.591 396.414 133.311 396.716C132.947 397.056 132.533 397.337 132.083 397.55C131.79 397.433 131.498 397.316 131.234 397.184C129.267 397.826 127.158 397.902 125.15 397.404C123.156 396.884 121.27 396.018 119.577 394.844C119.694 394.844 119.913 394.771 120.44 395.18C119.28 394.201 118.222 393.109 117.28 391.919C116.256 390.631 115.437 389.593 115.305 390.149C115.686 389.842 112.804 386.185 111.473 384.005L112.029 384.152C110.787 382.91 109.759 381.472 108.987 379.895C108.723 379.237 108.987 379.193 109.323 380.085C108.475 377.862 108.182 378.623 107.1 375.917L107.816 376.765C107.412 375.626 106.78 374.58 105.959 373.693C105.04 372.263 104.363 370.692 103.955 369.042C103.114 368.375 102.417 367.544 101.907 366.599C101.907 366.35 102.287 366.745 102.463 366.95C101.629 365.467 100.568 364.125 99.318 362.972C98.8061 362.489 98.2795 362.079 97.8553 361.611C97.4311 361.143 96.8314 360.704 96.2902 360.149C96.2902 360.002 96.1878 359.841 95.9977 359.666C97.6751 360.764 99.1581 362.133 100.386 363.718C100.678 363.484 98.9231 361.319 100.737 362.664C100.277 362.214 99.788 361.794 99.2742 361.406C98.6518 360.926 98.0022 360.481 97.3288 360.075C96.6559 359.637 95.8661 359.256 95.2078 358.876C94.5496 358.496 93.7451 358.159 93.1308 357.911C93.0173 357.848 92.9138 357.769 92.8236 357.677H93.1162C92.5634 357.418 91.9691 357.259 91.3609 357.209C90.609 356.958 89.8267 356.81 89.0352 356.77C88.728 356.331 85.6417 356.594 84.1936 357.018C84.3984 357.355 82.6139 357.896 84.3691 357.691C84.1497 357.691 84.6178 357.574 85.5539 357.369L86.139 357.223H86.0513C87.2232 357.101 88.4045 357.101 89.5764 357.223C89.0059 357.296 88.4355 357.326 87.8211 357.384C87.1311 357.454 86.4376 357.483 85.7441 357.472C85.1491 357.806 84.5729 358.172 84.0181 358.569C82.8123 358.624 81.6271 358.902 80.5222 359.388C79.3667 359.871 78.4598 360.426 78.138 360.47C74.8762 363.396 71.9654 368.237 71.4388 370.812C71.215 371.376 70.8214 371.856 70.3125 372.187C70.5612 371.558 70.9268 370.87 71.0146 370.505C70.0492 372.611 67.9868 376.56 68.2501 377.291C66.7874 379.749 68.4987 375.624 66.7874 379.193L66.8751 378.637C65.1713 381.561 63.6756 384.601 62.3992 387.735C61.7297 389.249 60.9062 390.69 59.9419 392.036C58.8545 393.572 57.4473 394.854 55.817 395.795C56.0738 395.591 56.3665 395.437 56.68 395.341C54.8653 396.798 52.7291 397.801 50.4489 398.267C48.1377 398.682 45.7572 398.465 43.5595 397.638C41.37 396.687 39.432 395.24 37.8988 393.411C36.3605 391.588 35.0673 389.572 34.0519 387.413C33.3708 386.002 32.4889 384.696 31.4336 383.537L31.5653 382.806L29.8393 380.495C27.7184 377.043 27.8354 373.664 24.6467 369.466L24.7198 370.197C23.8861 368.53 21.4287 365.312 21.7944 365.4C21.3809 365.176 21.0482 364.828 20.8436 364.405L20.9899 364.229C19.9127 363.1 18.7215 362.086 17.4355 361.202C16.0752 360.017 16.2361 359.988 16.3239 359.739C16.4116 359.49 16.3238 359.066 13.7349 357.925C12.563 357.555 11.3347 357.397 10.1073 357.457C8.98104 357.56 8.26432 357.706 8.64462 357.808C9.44911 357.808 10.6778 358.057 10.6924 358.349C10.1073 358.276 9.50762 358.349 8.92254 358.349C8.74701 358.671 8.35208 359.008 8.51298 359.329C8.67387 359.651 8.79089 359.651 9.21508 359.827C9.63926 360.002 10.2536 360.149 11.1312 360.485C11.5699 360.488 12.0068 360.542 12.433 360.646C12.8716 360.703 13.303 360.806 13.7202 360.953L14.3346 361.626C13.6955 361.275 13.0245 360.986 12.3307 360.763C12.7942 361.048 13.284 361.288 13.7934 361.48C14.2296 361.604 14.6592 361.75 15.0805 361.918C15.2405 362.28 15.4806 362.6 15.7826 362.855C16.1776 363.045 16.5871 363.235 16.9967 363.454L18.1961 364.171C18.1961 364.595 16.9821 363.674 18.1084 365.078C19.1761 365.853 17.7427 363.747 19.2932 365.239C19.9075 366.497 19.4541 366.321 20.6096 367.462C20.6096 367.755 20.3317 367.462 19.8782 367.067C20.9021 368.076 22.043 370.153 22.7159 370.622C23.1401 372.084 25.1586 374.922 24.515 375.097C25.3501 376.123 26.0711 377.236 26.6652 378.418C24.8807 376.516 28.8593 383.04 27.8354 382.806C29.2981 384.152 31.1265 388.73 33.3791 391.334C33.1451 391.158 32.9465 390.94 32.794 390.69C33.7886 392.314 33.9641 392.884 34.6224 393.966C35.1928 393.835 37.2699 396.073 38.8057 396.804C40.2684 398.779 37.226 396.394 37.4454 397.257C37.5624 397.038 38.4693 397.667 39.303 398.179C40.1368 398.691 40.9998 399.057 40.7657 398.662C41.4971 399.291 41.8774 399.466 42.1114 399.671C42.3782 399.895 42.6322 400.135 42.8721 400.388C43.1646 400.11 43.6034 400.241 44.1739 400.388C44.8712 400.617 45.606 400.712 46.3387 400.666C49.0593 401.148 47.0261 401.514 50.1125 401.119C50.8584 401.119 50.5659 401.309 50.1125 401.441C49.659 401.573 48.7521 401.733 48.7521 401.733ZM92.6335 360.529C92.1654 360.339 91.7412 360.222 91.4779 360.134C91.7119 360.266 92.063 360.339 92.6335 360.529ZM96.8753 363.454C96.3524 362.925 95.7901 362.436 95.1932 361.992C95.1932 361.772 95.3834 361.743 95.7783 362.094C95.4126 361.992 96.3634 362.781 96.8753 363.454ZM87.0752 356.799C88.0552 356.653 88.3916 356.799 88.5379 356.887C87.9757 356.863 87.4125 356.892 86.8558 356.974H86.7387C86.8195 356.891 86.9134 356.822 87.0167 356.77L87.0752 356.799Z" fill="#3D3D3D"/>
<path d="M85.3638 357.486L84.9835 357.603H85.554L85.8611 357.413L85.3638 357.486Z" fill="#3D3D3D"/>
<path d="M416.127 362.825L416.053 362.738C416.109 362.797 416.154 362.867 416.185 362.942C416.185 362.942 416.156 362.869 416.127 362.825Z" fill="#3D3D3D"/>
<path d="M147.31 383.376L147.207 383.333L147.076 383.801L147.31 383.376Z" fill="#3D3D3D"/>
<path d="M429.993 389.783C430.009 389.925 430.048 390.064 430.11 390.193C430.091 390.051 430.052 389.913 429.993 389.783Z" fill="#3D3D3D"/>
<path d="M439.442 399.159C440.013 399.466 440.642 399.7 441.256 399.964C440.466 399.598 439.881 399.393 439.442 399.159Z" fill="#3D3D3D"/>
<path d="M449.944 399.656C450.007 399.588 450.056 399.508 450.091 399.422V399.422L449.944 399.656Z" fill="#3D3D3D"/>
<path d="M342.698 376.165L342.508 375.829C342.026 375.068 342.333 375.595 342.698 376.165Z" fill="#3D3D3D"/>
<path d="M377.57 393.85C377.294 394.302 376.991 394.736 376.663 395.151C377.292 394.537 377.716 394.011 377.57 393.85Z" fill="#3D3D3D"/>
<path d="M309.51 376.75L309.363 377.043L309.51 376.75Z" fill="#3D3D3D"/>
<path d="M374.981 396.716C375.617 396.283 376.184 395.755 376.663 395.151L374.981 396.716Z" fill="#3D3D3D"/>
<path d="M474.971 364.522C475.068 364.409 475.175 364.306 475.293 364.215C475.293 364.215 475.293 364.215 475.293 364.127C475.174 364.248 475.066 364.381 474.971 364.522Z" fill="#3D3D3D"/>
<path d="M475.293 364.127L475.615 363.732C475.477 363.836 475.367 363.971 475.293 364.127V364.127Z" fill="#3D3D3D"/>
<path d="M476.317 362.928C476.068 363.182 475.833 363.451 475.615 363.732C475.879 363.491 476.114 363.221 476.317 362.928V362.928Z" fill="#3D3D3D"/>
<path d="M467.907 375.317V375.507C467.925 375.479 467.935 375.446 467.935 375.412C467.935 375.378 467.925 375.345 467.907 375.317Z" fill="#3D3D3D"/>
<path d="M466.181 378.93C466.857 377.879 467.472 376.79 468.024 375.668V375.507C467.892 376.165 466.356 377.994 466.181 378.93Z" fill="#3D3D3D"/>
<path d="M456.307 392.577C457.009 391.729 457.697 390.866 458.34 389.959C457.872 390.354 457.273 390.866 458.077 389.593C455.327 392.709 458.925 389.154 456.307 392.577Z" fill="#3D3D3D"/>
<path d="M448.218 398.091C449.784 397.492 448.131 397.887 448.218 397.77C447.224 398.106 446.961 398.194 448.218 398.091Z" fill="#3D3D3D"/>
<path d="M394.201 362.738L394.069 362.343C393.089 363.454 394.157 362.445 394.201 362.738Z" fill="#3D3D3D"/>
<path d="M388.057 376.004L388.876 374.907L388.862 374.176L388.057 376.004Z" fill="#3D3D3D"/>
<path d="M381.914 382.484L382.133 381.914L381.212 384.035L381.914 382.484Z" fill="#3D3D3D"/>
<path d="M299.607 388.116L300.207 387.999C300.616 387.165 300.28 386.755 299.607 388.116Z" fill="#3D3D3D"/>
<path d="M264.809 373.269C264.609 372.227 264.151 371.251 263.478 370.431C264.049 371.543 264.473 372.728 264.809 373.269Z" fill="#3D3D3D"/>
<path d="M150.674 368.662L151.142 367.594C150.805 368.237 150.454 368.866 150.162 369.51L150.674 368.662Z" fill="#3D3D3D"/>
</g>
<defs>
<clipPath id="clip0_362_15811">
<rect width="598" height="401.733" fill="white"/>
</clipPath>
</defs>
</svg>
