<svg width="157" height="52" viewBox="0 0 157 52" fill="none" xmlns="http://www.w3.org/2000/svg">
<path d="M17.3801 17.3333H0L17.3801 0H34.7601L17.3801 17.3333Z" fill="#73E586"/>
<path d="M52.1402 17.3333H34.7601L52.1402 0H69.5203L52.1402 17.3333Z" fill="#FBC2D3"/>
<path d="M52.1402 34.6666H34.7601L52.1402 17.3333H69.5203L52.1402 34.6666Z" fill="#FBC2D3"/>
<path d="M52.1402 52.0001H34.7601L52.1402 34.6667H69.5203L52.1402 52.0001Z" fill="#FBC2D3"/>
<path d="M86.9003 52.0001H69.5203L86.9003 34.6667H104.28L86.9003 52.0001Z" fill="#F9B050"/>
<path d="M17.3801 34.6666H0L17.3801 17.3333H34.7601L17.3801 34.6666Z" fill="#73E586"/>
<path d="M17.3801 34.6667H0V52.0001H17.3801V34.6667Z" fill="#73E586"/>
<path d="M86.9003 0H69.5203V34.6667H86.9003V0Z" fill="#F9B050"/>
<path d="M91.4771 8.95556V0H96.556V1.04H92.6937V3.85185H95.0014V4.96889H92.6937V8.95556H91.4771Z" fill="white"/>
<path d="M99.0085 0V7.8963H102.475V0H103.672V7.46296C103.672 8.29111 103.286 8.95556 102.079 8.95556H99.4526C98.2553 8.95556 97.8498 8.29111 97.8498 7.46296V0H99.0085Z" fill="white"/>
<path d="M104.783 0H111.039V1.04H108.529V8.95556H107.322V1.04H104.812L104.783 0Z" fill="white"/>
<path d="M113.328 0V7.8963H116.833V0H118.04V7.46296C118.04 8.29111 117.653 8.95556 116.447 8.95556H113.772C112.565 8.95556 112.159 8.29111 112.159 7.46296V0H113.328Z" fill="white"/>
<path d="M124.065 0C125.262 0 125.668 0.664444 125.668 1.49259V3.74593C125.668 4.57407 125.262 5.21926 124.065 5.21926H123.65L126.247 8.95556H124.712L122.269 5.21926H121.187V8.95556H119.98V0H124.065ZM121.168 4.17926H124.065C124.175 4.17926 124.281 4.13563 124.358 4.05798C124.436 3.98033 124.48 3.875 124.48 3.76519V1.45407C124.48 1.34425 124.436 1.23893 124.358 1.16128C124.281 1.08363 124.175 1.04 124.065 1.04H121.168V4.17926Z" fill="white"/>
<path d="M127.454 8.95556V0H132.668V1.04H128.651V3.85185H130.968V4.96889H128.651V7.91556H132.861V8.95556H127.454Z" fill="white"/>
<path d="M91.4771 19.5481V10.5925H96.7008V11.6325H92.6937V14.5214H95.0014V15.5999H92.6937V18.5466H96.8939V19.5481H91.4771Z" fill="white"/>
<path d="M99.8196 14.9644L97.3477 10.5925H98.7671L100.65 14.0881L102.581 10.5925H103.904L101.384 14.9644L103.904 19.5481H102.504L100.573 15.9273L98.6416 19.5481H97.3477L99.8196 14.9644Z" fill="white"/>
<path d="M110.672 14.4444C110.672 15.2725 110.267 15.9273 109.06 15.9273H106.289V19.5481H105.082V10.5925H109.108C110.315 10.5925 110.721 11.257 110.721 12.0851L110.672 14.4444ZM106.289 11.6807V14.8873H109.05C109.16 14.8849 109.264 14.8405 109.341 14.7634C109.418 14.6862 109.463 14.5823 109.465 14.4733V12.0466C109.465 11.9368 109.422 11.8315 109.344 11.7538C109.266 11.6762 109.16 11.6325 109.05 11.6325L106.289 11.6807Z" fill="white"/>
<path d="M112.237 19.5481V10.5925H117.46V11.6325H113.444V14.5214H115.751V15.5999H113.444V18.5466H117.644V19.5481H112.237Z" fill="white"/>
<path d="M122.974 10.5925C124.171 10.5925 124.577 11.257 124.577 12.0851V14.3385C124.577 15.1666 124.171 15.8118 122.974 15.8118H122.559L125.156 19.5481H123.592L121.149 15.8118H120.067V19.5481H118.86V10.5925H122.974ZM120.077 14.7718H122.974C123.084 14.7718 123.189 14.7282 123.267 14.6505C123.345 14.5729 123.389 14.4675 123.389 14.3577V12.0466C123.389 11.9368 123.345 11.8315 123.267 11.7538C123.189 11.6762 123.084 11.6325 122.974 11.6325H120.077V14.7718Z" fill="white"/>
<path d="M127.56 19.5481H126.363V10.5925H127.56V19.5481Z" fill="white"/>
<path d="M129.568 19.5481V10.5925H134.792V11.6325H130.775V14.5214H133.083V15.5999H130.775V18.5466H134.985V19.5481H129.568Z" fill="white"/>
<path d="M137.225 10.5925L141.088 16.8229V10.5925H142.217V19.5481H141.387L137.312 13.0096V19.5481H136.182V10.5925H137.225Z" fill="white"/>
<path d="M144.216 12.0851C144.216 11.257 144.622 10.5925 145.828 10.5925H148.31C149.517 10.5925 149.922 11.257 149.922 12.0851V13.3081L148.764 13.5392V11.6133H145.423V18.4888H148.764V16.3703L149.922 16.611V18.0266C149.922 18.8548 149.517 19.5192 148.31 19.5192H145.799C144.593 19.5192 144.187 18.8548 144.187 18.0266L144.216 12.0851Z" fill="white"/>
<path d="M151.593 19.5481V10.5925H156.807V11.6325H152.79V14.5214H155.108V15.5999H152.79V18.5466H157V19.5481H151.593Z" fill="white"/>
<path d="M91.4771 30.1409V21.1853H92.6937V29.1009H96.6332V30.1409H91.4771Z" fill="white"/>
<path d="M102.204 28.0416H98.854L98.1781 30.1409H97.0194L100.09 21.1853H101.055L104.165 30.1409H102.861L102.204 28.0416ZM100.534 22.8801L99.1919 27.0305H101.895L100.534 22.8801Z" fill="white"/>
<path d="M111.097 28.6483C111.097 29.4764 110.692 30.1409 109.485 30.1409H105.41V21.1853H109.427C110.634 21.1853 111.03 21.8497 111.03 22.6779V24.0742C111.044 24.4174 110.938 24.7549 110.73 25.0289C110.522 25.3029 110.225 25.4964 109.89 25.5764C110.232 25.6082 110.548 25.7701 110.773 26.0284C110.997 26.2867 111.114 26.6215 111.097 26.9631V28.6483ZM106.617 25.0372H109.041C109.146 25.0444 109.252 25.0289 109.351 24.9917C109.45 24.9544 109.539 24.8963 109.613 24.8214C109.688 24.7464 109.745 24.6563 109.781 24.5573C109.817 24.4582 109.831 24.3526 109.823 24.2475V22.6297C109.824 22.5758 109.815 22.5222 109.795 22.472C109.775 22.4218 109.745 22.3761 109.707 22.3375C109.67 22.2989 109.625 22.2683 109.575 22.2474C109.525 22.2264 109.471 22.2157 109.417 22.2157H106.617V25.0372ZM109.823 26.8475C109.831 26.7425 109.817 26.6368 109.781 26.5378C109.745 26.4388 109.688 26.3487 109.613 26.2737C109.539 26.1987 109.45 26.1406 109.351 26.1034C109.252 26.0661 109.146 26.0506 109.041 26.0579H106.617V29.072H109.417C109.526 29.0695 109.629 29.0247 109.705 28.9473C109.78 28.87 109.823 28.7661 109.823 28.6579V26.8475Z" fill="white"/>
</svg>
