<svg width="1442" height="1029" viewBox="0 0 1442 1029" fill="none" xmlns="http://www.w3.org/2000/svg">
<path d="M1 973.718L58.6024 1028.09L116.205 973.718L173.792 1028.09L231.395 973.718L288.997 1028.09L346.585 973.718L404.172 1028.09L461.775 973.718L519.362 1028.09L576.965 973.718L634.567 1028.09L692.169 973.718L749.757 1028.09L807.359 973.718L864.962 1028.09L922.564 973.718L980.166 1028.09L1037.77 973.718L1095.37 1028.09L1152.97 973.718L1210.58 1028.09L1268.18 973.718L1325.78 1028.09L1383.4 973.718L1441 1028.09" stroke="#E1E1E1" stroke-miterlimit="10"/>
<path d="M1 931.425L58.6024 985.801L116.205 931.425L173.792 985.801L231.395 931.425L288.997 985.801L346.585 931.425L404.172 985.801L461.775 931.425L519.362 985.801L576.965 931.425L634.567 985.801L692.169 931.425L749.757 985.801L807.359 931.425L864.962 985.801L922.564 931.425L980.166 985.801L1037.77 931.425L1095.37 985.801L1152.97 931.425L1210.58 985.801L1268.18 931.425L1325.78 985.801L1383.4 931.425L1441 985.801" stroke="#E1E1E1" stroke-miterlimit="10"/>
<path d="M1 889.134L58.6024 943.509L116.205 889.134L173.792 943.509L231.395 889.134L288.997 943.509L346.585 889.134L404.172 943.509L461.775 889.134L519.362 943.509L576.965 889.134L634.567 943.509L692.169 889.134L749.757 943.509L807.359 889.134L864.962 943.509L922.564 889.134L980.166 943.509L1037.77 889.134L1095.37 943.509L1152.97 889.134L1210.58 943.509L1268.18 889.134L1325.78 943.509L1383.4 889.134L1441 943.509" stroke="#E1E1E1" stroke-miterlimit="10"/>
<path d="M1 846.842L58.6024 901.217L116.205 846.842L173.792 901.217L231.395 846.842L288.997 901.217L346.585 846.842L404.172 901.217L461.775 846.842L519.362 901.217L576.965 846.842L634.567 901.217L692.169 846.842L749.757 901.217L807.359 846.842L864.962 901.217L922.564 846.842L980.166 901.217L1037.77 846.842L1095.37 901.217L1152.97 846.842L1210.58 901.217L1268.18 846.842L1325.78 901.217L1383.4 846.842L1441 901.217" stroke="#E1E1E1" stroke-miterlimit="10"/>
<path d="M1 804.549L58.6024 858.925L116.205 804.549L173.792 858.925L231.395 804.549L288.997 858.925L346.585 804.549L404.172 858.925L461.775 804.549L519.362 858.925L576.965 804.549L634.567 858.925L692.169 804.549L749.757 858.925L807.359 804.549L864.962 858.925L922.564 804.549L980.166 858.925L1037.77 804.549L1095.37 858.925L1152.97 804.549L1210.58 858.925L1268.18 804.549L1325.78 858.925L1383.4 804.549L1441 858.925" stroke="#E1E1E1" stroke-miterlimit="10"/>
<path d="M1 762.257L58.6024 816.633L116.205 762.257L173.792 816.633L231.395 762.257L288.997 816.633L346.585 762.257L404.172 816.633L461.775 762.257L519.362 816.633L576.965 762.257L634.567 816.633L692.169 762.257L749.757 816.633L807.359 762.257L864.962 816.633L922.564 762.257L980.166 816.633L1037.77 762.257L1095.37 816.633L1152.97 762.257L1210.58 816.633L1268.18 762.257L1325.78 816.633L1383.4 762.257L1441 816.633" stroke="#E1E1E1" stroke-miterlimit="10"/>
<path d="M1 719.965L58.6024 774.341L116.205 719.965L173.792 774.341L231.395 719.965L288.997 774.341L346.585 719.965L404.172 774.341L461.775 719.965L519.362 774.341L576.964 719.965L634.567 774.341L692.169 719.965L749.757 774.341L807.359 719.965L864.962 774.341L922.564 719.965L980.166 774.341L1037.77 719.965L1095.37 774.341L1152.97 719.965L1210.58 774.341L1268.18 719.965L1325.78 774.341L1383.4 719.965L1441 774.341" stroke="#E1E1E1" stroke-miterlimit="10"/>
<path d="M1 677.673L58.6024 732.049L116.205 677.673L173.792 732.049L231.395 677.673L288.997 732.049L346.585 677.673L404.172 732.049L461.775 677.673L519.362 732.049L576.965 677.673L634.567 732.049L692.169 677.673L749.757 732.049L807.359 677.673L864.962 732.049L922.564 677.673L980.166 732.049L1037.77 677.673L1095.37 732.049L1152.97 677.673L1210.58 732.049L1268.18 677.673L1325.78 732.049L1383.4 677.673L1441 732.049" stroke="#E1E1E1" stroke-miterlimit="10"/>
<path d="M1 635.381L58.6024 689.756L116.205 635.381L173.792 689.756L231.395 635.381L288.997 689.756L346.585 635.381L404.172 689.756L461.775 635.381L519.362 689.756L576.965 635.381L634.567 689.756L692.169 635.381L749.757 689.756L807.359 635.381L864.962 689.756L922.564 635.381L980.166 689.756L1037.77 635.381L1095.37 689.756L1152.97 635.381L1210.58 689.756L1268.18 635.381L1325.78 689.756L1383.4 635.381L1441 689.756" stroke="#E1E1E1" stroke-miterlimit="10"/>
<path d="M1 593.089L58.6024 647.464L116.205 593.089L173.792 647.464L231.395 593.089L288.997 647.464L346.585 593.089L404.172 647.464L461.775 593.089L519.362 647.464L576.965 593.089L634.567 647.464L692.169 593.089L749.757 647.464L807.359 593.089L864.962 647.464L922.564 593.089L980.166 647.464L1037.77 593.089L1095.37 647.464L1152.97 593.089L1210.58 647.464L1268.18 593.089L1325.78 647.464L1383.4 593.089L1441 647.464" stroke="#E1E1E1" stroke-miterlimit="10"/>
<path d="M1 550.797L58.6024 605.172L116.205 550.797L173.792 605.172L231.395 550.797L288.997 605.172L346.585 550.797L404.172 605.172L461.775 550.797L519.362 605.172L576.965 550.797L634.567 605.172L692.169 550.797L749.757 605.172L807.359 550.797L864.962 605.172L922.564 550.797L980.166 605.172L1037.77 550.797L1095.37 605.172L1152.97 550.797L1210.58 605.172L1268.18 550.797L1325.78 605.172L1383.4 550.797L1441 605.172" stroke="#E1E1E1" stroke-miterlimit="10"/>
<path d="M1 508.505L58.6024 562.88L116.205 508.505L173.792 562.88L231.395 508.505L288.997 562.88L346.585 508.505L404.172 562.88L461.775 508.505L519.362 562.88L576.965 508.505L634.567 562.88L692.169 508.505L749.757 562.88L807.359 508.505L864.962 562.88L922.564 508.505L980.166 562.88L1037.77 508.505L1095.37 562.88L1152.97 508.505L1210.58 562.88L1268.18 508.505L1325.78 562.88L1383.4 508.505L1441 562.88" stroke="#E1E1E1" stroke-miterlimit="10"/>
<path d="M1 466.213L58.6024 520.588L116.205 466.213L173.792 520.588L231.395 466.213L288.997 520.588L346.585 466.213L404.172 520.588L461.775 466.213L519.362 520.588L576.965 466.213L634.567 520.588L692.169 466.213L749.757 520.588L807.359 466.213L864.962 520.588L922.564 466.213L980.166 520.588L1037.77 466.213L1095.37 520.588L1152.97 466.213L1210.58 520.588L1268.18 466.213L1325.78 520.588L1383.4 466.213L1441 520.588" stroke="#E1E1E1" stroke-miterlimit="10"/>
<path d="M1 423.921L58.6024 478.296L116.205 423.921L173.792 478.296L231.395 423.921L288.997 478.296L346.585 423.921L404.172 478.296L461.775 423.921L519.362 478.296L576.965 423.921L634.567 478.296L692.169 423.921L749.757 478.296L807.359 423.921L864.962 478.296L922.564 423.921L980.166 478.296L1037.77 423.921L1095.37 478.296L1152.97 423.921L1210.58 478.296L1268.18 423.921L1325.78 478.296L1383.4 423.921L1441 478.296" stroke="#E1E1E1" stroke-miterlimit="10"/>
<path d="M1 381.629L58.6024 436.004L116.205 381.629L173.792 436.004L231.395 381.629L288.997 436.004L346.585 381.629L404.172 436.004L461.775 381.629L519.362 436.004L576.965 381.629L634.567 436.004L692.169 381.629L749.757 436.004L807.359 381.629L864.962 436.004L922.564 381.629L980.166 436.004L1037.77 381.629L1095.37 436.004L1152.97 381.629L1210.58 436.004L1268.18 381.629L1325.78 436.004L1383.4 381.629L1441 436.004" stroke="#E1E1E1" stroke-miterlimit="10"/>
<path d="M1 339.336L58.6024 393.712L116.205 339.336L173.792 393.712L231.395 339.336L288.997 393.712L346.585 339.336L404.172 393.712L461.775 339.336L519.362 393.712L576.965 339.336L634.567 393.712L692.169 339.336L749.757 393.712L807.359 339.336L864.962 393.712L922.564 339.336L980.166 393.712L1037.77 339.336L1095.37 393.712L1152.97 339.336L1210.58 393.712L1268.18 339.336L1325.78 393.712L1383.4 339.336L1441 393.712" stroke="#E1E1E1" stroke-miterlimit="10"/>
<path d="M1 297.044L58.6024 351.42L116.205 297.044L173.792 351.42L231.395 297.044L288.997 351.42L346.585 297.044L404.172 351.42L461.775 297.044L519.362 351.42L576.965 297.044L634.567 351.42L692.169 297.044L749.757 351.42L807.359 297.044L864.962 351.42L922.564 297.044L980.166 351.42L1037.77 297.044L1095.37 351.42L1152.97 297.044L1210.58 351.42L1268.18 297.044L1325.78 351.42L1383.4 297.044L1441 351.42" stroke="#E1E1E1" stroke-miterlimit="10"/>
<path d="M1 254.752L58.6024 309.128L116.205 254.752L173.792 309.128L231.395 254.752L288.997 309.128L346.585 254.752L404.172 309.128L461.775 254.752L519.362 309.128L576.965 254.752L634.567 309.128L692.169 254.752L749.757 309.128L807.359 254.752L864.962 309.128L922.564 254.752L980.166 309.128L1037.77 254.752L1095.37 309.128L1152.97 254.752L1210.58 309.128L1268.18 254.752L1325.78 309.128L1383.4 254.752L1441 309.128" stroke="#E1E1E1" stroke-miterlimit="10"/>
<path d="M1 212.46L58.6024 266.836L116.205 212.46L173.792 266.836L231.395 212.46L288.997 266.836L346.585 212.46L404.172 266.836L461.775 212.46L519.362 266.836L576.965 212.46L634.567 266.836L692.169 212.46L749.757 266.836L807.359 212.46L864.962 266.836L922.564 212.46L980.166 266.836L1037.77 212.46L1095.37 266.836L1152.97 212.46L1210.58 266.836L1268.18 212.46L1325.78 266.836L1383.4 212.46L1441 266.836" stroke="#E1E1E1" stroke-miterlimit="10"/>
<path d="M1 170.168L58.6024 224.544L116.205 170.168L173.792 224.544L231.395 170.168L288.997 224.544L346.585 170.168L404.172 224.544L461.775 170.168L519.362 224.544L576.965 170.168L634.567 224.544L692.169 170.168L749.757 224.544L807.359 170.168L864.962 224.544L922.564 170.168L980.166 224.544L1037.77 170.168L1095.37 224.544L1152.97 170.168L1210.58 224.544L1268.18 170.168L1325.78 224.544L1383.4 170.168L1441 224.544" stroke="#E1E1E1" stroke-miterlimit="10"/>
<path d="M1 127.876L58.6024 182.252L116.205 127.876L173.792 182.252L231.395 127.876L288.997 182.252L346.585 127.876L404.172 182.252L461.775 127.876L519.362 182.252L576.965 127.876L634.567 182.252L692.169 127.876L749.757 182.252L807.359 127.876L864.962 182.252L922.564 127.876L980.166 182.252L1037.77 127.876L1095.37 182.252L1152.97 127.876L1210.58 182.252L1268.18 127.876L1325.78 182.252L1383.4 127.876L1441 182.252" stroke="#E1E1E1" stroke-miterlimit="10"/>
<path d="M1 85.584L58.6024 139.96L116.205 85.584L173.792 139.96L231.395 85.584L288.997 139.96L346.585 85.584L404.172 139.96L461.775 85.584L519.362 139.96L576.965 85.584L634.567 139.96L692.169 85.584L749.757 139.96L807.359 85.584L864.962 139.96L922.564 85.584L980.166 139.96L1037.77 85.584L1095.37 139.96L1152.97 85.584L1210.58 139.96L1268.18 85.584L1325.78 139.96L1383.4 85.584L1441 139.96" stroke="#E1E1E1" stroke-miterlimit="10"/>
<path d="M1 43.292L58.6024 97.6675L116.205 43.292L173.792 97.6675L231.395 43.292L288.997 97.6675L346.585 43.292L404.172 97.6675L461.775 43.292L519.362 97.6675L576.965 43.292L634.567 97.6675L692.169 43.292L749.757 97.6675L807.359 43.292L864.962 97.6675L922.564 43.292L980.166 97.6675L1037.77 43.292L1095.37 97.6675L1152.97 43.292L1210.58 97.6675L1268.18 43.292L1325.78 97.6675L1383.4 43.292L1441 97.6675" stroke="#E1E1E1" stroke-miterlimit="10"/>
<path d="M1 1L58.6024 55.3755L116.205 1L173.792 55.3755L231.395 1L288.997 55.3755L346.585 1L404.172 55.3755L461.775 1L519.362 55.3755L576.965 1L634.567 55.3755L692.169 1L749.757 55.3755L807.359 1L864.962 55.3755L922.564 1L980.166 55.3755L1037.77 1L1095.37 55.3755L1152.97 1L1210.58 55.3755L1268.18 1L1325.78 55.3755L1383.4 1L1441 55.3755" stroke="#E1E1E1" stroke-miterlimit="10"/>
</svg>
