<svg width="1016" height="697" viewBox="0 0 1016 697" fill="none" xmlns="http://www.w3.org/2000/svg">
<g opacity="0.5" clip-path="url(#clip0_305_80045)">
<circle cx="4" cy="4" r="4" fill="#F6F6F6"/>
<circle cx="76" cy="4" r="4" fill="#F6F6F6"/>
<circle cx="148" cy="4" r="4" fill="#F6F6F6"/>
<circle cx="220" cy="4" r="4" fill="#F6F6F6"/>
<circle cx="292" cy="4" r="4" fill="#F6F6F6"/>
<circle cx="364" cy="4" r="4" fill="#F6F6F6"/>
<circle cx="436" cy="4" r="4" fill="#F6F6F6"/>
<circle cx="508" cy="4" r="4" fill="#F6F6F6"/>
<circle cx="580" cy="4" r="4" fill="#F6F6F6"/>
<circle cx="652" cy="4" r="4" fill="#F6F6F6"/>
<circle cx="724" cy="4" r="4" fill="#F6F6F6"/>
<circle cx="796" cy="4" r="4" fill="#F6F6F6"/>
<circle cx="868" cy="4" r="4" fill="#F6F6F6"/>
<circle cx="940" cy="4" r="4" fill="#F6F6F6"/>
<circle cx="1012" cy="4" r="4" fill="#F6F6F6"/>
<circle cx="4" cy="76" r="4" fill="#F6F6F6"/>
<circle cx="76" cy="76" r="4" fill="#F6F6F6"/>
<circle cx="148" cy="76" r="4" fill="#F6F6F6"/>
<circle cx="220" cy="76" r="4" fill="#F6F6F6"/>
<circle cx="292" cy="76" r="4" fill="#F6F6F6"/>
<circle cx="364" cy="76" r="4" fill="#F6F6F6"/>
<circle cx="436" cy="76" r="4" fill="#F6F6F6"/>
<circle cx="508" cy="76" r="4" fill="#F6F6F6"/>
<circle cx="580" cy="76" r="4" fill="#F6F6F6"/>
<circle cx="652" cy="76" r="4" fill="#F6F6F6"/>
<circle cx="724" cy="76" r="4" fill="#F6F6F6"/>
<circle cx="796" cy="76" r="4" fill="#F6F6F6"/>
<circle cx="868" cy="76" r="4" fill="#F6F6F6"/>
<circle cx="940" cy="76" r="4" fill="#F6F6F6"/>
<circle cx="1012" cy="76" r="4" fill="#F6F6F6"/>
<circle cx="4" cy="148" r="4" fill="#F6F6F6"/>
<circle cx="76" cy="148" r="4" fill="#F6F6F6"/>
<circle cx="148" cy="148" r="4" fill="#F6F6F6"/>
<circle cx="220" cy="148" r="4" fill="#F6F6F6"/>
<circle cx="292" cy="148" r="4" fill="#F6F6F6"/>
<circle cx="364" cy="148" r="4" fill="#F6F6F6"/>
<circle cx="436" cy="148" r="4" fill="#F6F6F6"/>
<circle cx="508" cy="148" r="4" fill="#F6F6F6"/>
<circle cx="580" cy="148" r="4" fill="#F6F6F6"/>
<circle cx="652" cy="148" r="4" fill="#F6F6F6"/>
<circle cx="724" cy="148" r="4" fill="#F6F6F6"/>
<circle cx="796" cy="148" r="4" fill="#F6F6F6"/>
<circle cx="868" cy="148" r="4" fill="#F6F6F6"/>
<circle cx="940" cy="148" r="4" fill="#F6F6F6"/>
<circle cx="1012" cy="148" r="4" fill="#F6F6F6"/>
<circle cx="4" cy="220" r="4" fill="#F6F6F6"/>
<circle cx="76" cy="220" r="4" fill="#F6F6F6"/>
<circle cx="148" cy="220" r="4" fill="#F6F6F6"/>
<circle cx="220" cy="220" r="4" fill="#F6F6F6"/>
<circle cx="292" cy="220" r="4" fill="#F6F6F6"/>
<circle cx="364" cy="220" r="4" fill="#F6F6F6"/>
<circle cx="436" cy="220" r="4" fill="#F6F6F6"/>
<circle cx="508" cy="220" r="4" fill="#F6F6F6"/>
<circle cx="580" cy="220" r="4" fill="#F6F6F6"/>
<circle cx="652" cy="220" r="4" fill="#F6F6F6"/>
<circle cx="724" cy="220" r="4" fill="#F6F6F6"/>
<circle cx="796" cy="220" r="4" fill="#F6F6F6"/>
<circle cx="868" cy="220" r="4" fill="#F6F6F6"/>
<circle cx="940" cy="220" r="4" fill="#F6F6F6"/>
<circle cx="1012" cy="220" r="4" fill="#F6F6F6"/>
<circle cx="4" cy="292" r="4" fill="#F6F6F6"/>
<circle cx="76" cy="292" r="4" fill="#F6F6F6"/>
<circle cx="148" cy="292" r="4" fill="#F6F6F6"/>
<circle cx="220" cy="292" r="4" fill="#F6F6F6"/>
<circle cx="292" cy="292" r="4" fill="#F6F6F6"/>
<circle cx="364" cy="292" r="4" fill="#F6F6F6"/>
<circle cx="436" cy="292" r="4" fill="#F6F6F6"/>
<circle cx="508" cy="292" r="4" fill="#F6F6F6"/>
<circle cx="580" cy="292" r="4" fill="#F6F6F6"/>
<circle cx="652" cy="292" r="4" fill="#F6F6F6"/>
<circle cx="724" cy="292" r="4" fill="#F6F6F6"/>
<circle cx="796" cy="292" r="4" fill="#F6F6F6"/>
<circle cx="868" cy="292" r="4" fill="#F6F6F6"/>
<circle cx="940" cy="292" r="4" fill="#F6F6F6"/>
<circle cx="1012" cy="292" r="4" fill="#F6F6F6"/>
<circle cx="4" cy="364" r="4" fill="#F6F6F6"/>
<circle cx="76" cy="364" r="4" fill="#F6F6F6"/>
<circle cx="148" cy="364" r="4" fill="#F6F6F6"/>
<circle cx="220" cy="364" r="4" fill="#F6F6F6"/>
<circle cx="292" cy="364" r="4" fill="#F6F6F6"/>
<circle cx="364" cy="364" r="4" fill="#F6F6F6"/>
<circle cx="436" cy="364" r="4" fill="#F6F6F6"/>
<circle cx="508" cy="364" r="4" fill="#F6F6F6"/>
<circle cx="580" cy="364" r="4" fill="#F6F6F6"/>
<circle cx="652" cy="364" r="4" fill="#F6F6F6"/>
<circle cx="724" cy="364" r="4" fill="#F6F6F6"/>
<circle cx="796" cy="364" r="4" fill="#F6F6F6"/>
<circle cx="868" cy="364" r="4" fill="#F6F6F6"/>
<circle cx="940" cy="364" r="4" fill="#F6F6F6"/>
<circle cx="1012" cy="364" r="4" fill="#F6F6F6"/>
<circle cx="4" cy="436" r="4" fill="#F6F6F6"/>
<circle cx="76" cy="436" r="4" fill="#F6F6F6"/>
<circle cx="148" cy="436" r="4" fill="#F6F6F6"/>
<circle cx="220" cy="436" r="4" fill="#F6F6F6"/>
<circle cx="292" cy="436" r="4" fill="#F6F6F6"/>
<circle cx="364" cy="436" r="4" fill="#F6F6F6"/>
<circle cx="436" cy="436" r="4" fill="#F6F6F6"/>
<circle cx="508" cy="436" r="4" fill="#F6F6F6"/>
<circle cx="580" cy="436" r="4" fill="#F6F6F6"/>
<circle cx="652" cy="436" r="4" fill="#F6F6F6"/>
<circle cx="724" cy="436" r="4" fill="#F6F6F6"/>
<circle cx="796" cy="436" r="4" fill="#F6F6F6"/>
<circle cx="868" cy="436" r="4" fill="#F6F6F6"/>
<circle cx="940" cy="436" r="4" fill="#F6F6F6"/>
<circle cx="1012" cy="436" r="4" fill="#F6F6F6"/>
<circle cx="4" cy="508" r="4" fill="#F6F6F6"/>
<circle cx="76" cy="508" r="4" fill="#F6F6F6"/>
<circle cx="148" cy="508" r="4" fill="#F6F6F6"/>
<circle cx="220" cy="508" r="4" fill="#F6F6F6"/>
<circle cx="292" cy="508" r="4" fill="#F6F6F6"/>
<circle cx="364" cy="508" r="4" fill="#F6F6F6"/>
<circle cx="436" cy="508" r="4" fill="#F6F6F6"/>
<circle cx="508" cy="508" r="4" fill="#F6F6F6"/>
<circle cx="580" cy="508" r="4" fill="#F6F6F6"/>
<circle cx="652" cy="508" r="4" fill="#F6F6F6"/>
<circle cx="724" cy="508" r="4" fill="#F6F6F6"/>
<circle cx="796" cy="508" r="4" fill="#F6F6F6"/>
<circle cx="868" cy="508" r="4" fill="#F6F6F6"/>
<circle cx="940" cy="508" r="4" fill="#F6F6F6"/>
<circle cx="1012" cy="508" r="4" fill="#F6F6F6"/>
<circle cx="4" cy="580" r="4" fill="#F6F6F6"/>
<circle cx="76" cy="580" r="4" fill="#F6F6F6"/>
<circle cx="148" cy="580" r="4" fill="#F6F6F6"/>
<circle cx="220" cy="580" r="4" fill="#F6F6F6"/>
<circle cx="292" cy="580" r="4" fill="#F6F6F6"/>
<circle cx="364" cy="580" r="4" fill="#F6F6F6"/>
<circle cx="436" cy="580" r="4" fill="#F6F6F6"/>
<circle cx="508" cy="580" r="4" fill="#F6F6F6"/>
<circle cx="580" cy="580" r="4" fill="#F6F6F6"/>
<circle cx="652" cy="580" r="4" fill="#F6F6F6"/>
<circle cx="724" cy="580" r="4" fill="#F6F6F6"/>
<circle cx="796" cy="580" r="4" fill="#F6F6F6"/>
<circle cx="868" cy="580" r="4" fill="#F6F6F6"/>
<circle cx="940" cy="580" r="4" fill="#F6F6F6"/>
<circle cx="1012" cy="580" r="4" fill="#F6F6F6"/>
<circle cx="4" cy="652" r="4" fill="#F6F6F6"/>
<circle cx="76" cy="652" r="4" fill="#F6F6F6"/>
<circle cx="148" cy="652" r="4" fill="#F6F6F6"/>
<circle cx="220" cy="652" r="4" fill="#F6F6F6"/>
<circle cx="292" cy="652" r="4" fill="#F6F6F6"/>
<circle cx="364" cy="652" r="4" fill="#F6F6F6"/>
<circle cx="436" cy="652" r="4" fill="#F6F6F6"/>
<circle cx="508" cy="652" r="4" fill="#F6F6F6"/>
<circle cx="580" cy="652" r="4" fill="#F6F6F6"/>
<circle cx="652" cy="652" r="4" fill="#F6F6F6"/>
<circle cx="724" cy="652" r="4" fill="#F6F6F6"/>
<circle cx="796" cy="652" r="4" fill="#F6F6F6"/>
<circle cx="868" cy="652" r="4" fill="#F6F6F6"/>
<circle cx="940" cy="652" r="4" fill="#F6F6F6"/>
<circle cx="1012" cy="652" r="4" fill="#F6F6F6"/>
</g>
<defs>
<clipPath id="clip0_305_80045">
<rect width="1016" height="697" fill="white"/>
</clipPath>
</defs>
</svg>
