<svg width="2874" height="2874" viewBox="0 0 2874 2874" fill="none" xmlns="http://www.w3.org/2000/svg">
<g clip-path="url(#clip0_338_8828)">
<path d="M2869.44 1443.91L2854.64 1438.91L2864.44 1429.11L2869.44 1443.91Z" fill="#FBC2D3"/>
<path d="M2767.62 1545.73L2752.82 1540.73L2762.62 1530.94L2767.62 1545.73Z" fill="#FBC2D3"/>
<path d="M2665.79 1647.56L2650.99 1642.56L2660.79 1632.76L2665.79 1647.56Z" fill="#FBC2D3"/>
<path d="M2563.97 1749.38L2549.17 1744.38L2558.97 1734.58L2563.97 1749.38Z" fill="#FBC2D3"/>
<path d="M2462.15 1851.2L2447.35 1846.2L2457.15 1836.41L2462.15 1851.2Z" fill="#FBC2D3"/>
<path d="M2360.32 1953.03L2345.52 1948.03L2355.32 1938.23L2360.32 1953.03Z" fill="#FBC2D3"/>
<path d="M2258.5 2054.85L2243.7 2049.85L2253.5 2040.05L2258.5 2054.85Z" fill="#FBC2D3"/>
<path d="M2156.68 2156.68L2141.88 2151.67L2151.67 2141.88L2156.68 2156.68Z" fill="#FBC2D3"/>
<path d="M2054.85 2258.5L2040.05 2253.5L2049.85 2243.7L2054.85 2258.5Z" fill="#FBC2D3"/>
<path d="M1953.03 2360.32L1938.23 2355.32L1948.03 2345.52L1953.03 2360.32Z" fill="#FBC2D3"/>
<path d="M1851.21 2462.15L1836.41 2457.14L1846.2 2447.35L1851.21 2462.15Z" fill="#FBC2D3"/>
<path d="M1749.38 2563.97L1734.58 2558.97L1744.38 2549.17L1749.38 2563.97Z" fill="#FBC2D3"/>
<path d="M1647.56 2665.79L1632.76 2660.79L1642.56 2650.99L1647.56 2665.79Z" fill="#FBC2D3"/>
<path d="M1545.74 2767.61L1530.94 2762.61L1540.74 2752.82L1545.74 2767.61Z" fill="#FBC2D3"/>
<path d="M1443.91 2869.44L1429.11 2864.44L1438.91 2854.64L1443.91 2869.44Z" fill="#FBC2D3"/>
<path d="M2767.62 1342.09L2752.82 1337.09L2762.62 1327.29L2767.62 1342.09Z" fill="#FBC2D3"/>
<path d="M2665.79 1443.91L2650.99 1438.91L2660.79 1429.11L2665.79 1443.91Z" fill="#FBC2D3"/>
<path d="M2563.97 1545.73L2549.17 1540.73L2558.97 1530.94L2563.97 1545.73Z" fill="#FBC2D3"/>
<path d="M2462.15 1647.56L2447.35 1642.56L2457.15 1632.76L2462.15 1647.56Z" fill="#FBC2D3"/>
<path d="M2360.32 1749.38L2345.52 1744.38L2355.32 1734.58L2360.32 1749.38Z" fill="#FBC2D3"/>
<path d="M2258.5 1851.21L2243.7 1846.21L2253.5 1836.41L2258.5 1851.21Z" fill="#FBC2D3"/>
<path d="M2156.68 1953.03L2141.88 1948.03L2151.67 1938.23L2156.68 1953.03Z" fill="#FBC2D3"/>
<path d="M2054.85 2054.85L2040.05 2049.85L2049.85 2040.05L2054.85 2054.85Z" fill="#FBC2D3"/>
<path d="M1953.03 2156.68L1938.23 2151.67L1948.03 2141.88L1953.03 2156.68Z" fill="#FBC2D3"/>
<path d="M1851.21 2258.5L1836.41 2253.5L1846.2 2243.7L1851.21 2258.5Z" fill="#FBC2D3"/>
<path d="M1749.38 2360.32L1734.58 2355.32L1744.38 2345.52L1749.38 2360.32Z" fill="#FBC2D3"/>
<path d="M1647.56 2462.15L1632.76 2457.14L1642.56 2447.35L1647.56 2462.15Z" fill="#FBC2D3"/>
<path d="M1545.74 2563.97L1530.94 2558.97L1540.74 2549.17L1545.74 2563.97Z" fill="#FBC2D3"/>
<path d="M1443.91 2665.79L1429.11 2660.79L1438.91 2650.99L1443.91 2665.79Z" fill="#FBC2D3"/>
<path d="M1342.09 2767.62L1327.29 2762.62L1337.09 2752.82L1342.09 2767.62Z" fill="#FBC2D3"/>
<path d="M2665.79 1240.27L2650.99 1235.26L2660.79 1225.47L2665.79 1240.27Z" fill="#FBC2D3"/>
<path d="M2563.97 1342.09L2549.17 1337.09L2558.97 1327.29L2563.97 1342.09Z" fill="#FBC2D3"/>
<path d="M2462.15 1443.91L2447.35 1438.91L2457.15 1429.11L2462.15 1443.91Z" fill="#FBC2D3"/>
<path d="M2360.32 1545.73L2345.52 1540.73L2355.32 1530.94L2360.32 1545.73Z" fill="#FBC2D3"/>
<path d="M2258.5 1647.56L2243.7 1642.56L2253.5 1632.76L2258.5 1647.56Z" fill="#FBC2D3"/>
<path d="M2156.68 1749.38L2141.88 1744.38L2151.67 1734.58L2156.68 1749.38Z" fill="#FBC2D3"/>
<path d="M2054.85 1851.21L2040.05 1846.21L2049.85 1836.41L2054.85 1851.21Z" fill="#FBC2D3"/>
<path d="M1953.03 1953.03L1938.23 1948.03L1948.03 1938.23L1953.03 1953.03Z" fill="#FBC2D3"/>
<path d="M1851.21 2054.85L1836.41 2049.85L1846.2 2040.05L1851.21 2054.85Z" fill="#FBC2D3"/>
<path d="M1749.38 2156.68L1734.58 2151.67L1744.38 2141.88L1749.38 2156.68Z" fill="#FBC2D3"/>
<path d="M1647.56 2258.5L1632.76 2253.5L1642.56 2243.7L1647.56 2258.5Z" fill="#FBC2D3"/>
<path d="M1545.74 2360.32L1530.94 2355.32L1540.74 2345.52L1545.74 2360.32Z" fill="#FBC2D3"/>
<path d="M1443.91 2462.15L1429.11 2457.14L1438.91 2447.35L1443.91 2462.15Z" fill="#FBC2D3"/>
<path d="M1342.09 2563.97L1327.29 2558.97L1337.09 2549.17L1342.09 2563.97Z" fill="#FBC2D3"/>
<path d="M1240.27 2665.79L1225.47 2660.79L1235.26 2650.99L1240.27 2665.79Z" fill="#FBC2D3"/>
<path d="M2563.97 1138.44L2549.17 1133.44L2558.97 1123.64L2563.97 1138.44Z" fill="#FBC2D3"/>
<path d="M2462.15 1240.27L2447.35 1235.26L2457.15 1225.47L2462.15 1240.27Z" fill="#FBC2D3"/>
<path d="M2360.32 1342.09L2345.52 1337.09L2355.32 1327.29L2360.32 1342.09Z" fill="#FBC2D3"/>
<path d="M2258.5 1443.91L2243.7 1438.91L2253.5 1429.11L2258.5 1443.91Z" fill="#FBC2D3"/>
<path d="M2156.68 1545.73L2141.88 1540.73L2151.68 1530.94L2156.68 1545.73Z" fill="#FBC2D3"/>
<path d="M2054.85 1647.56L2040.05 1642.56L2049.85 1632.76L2054.85 1647.56Z" fill="#FBC2D3"/>
<path d="M1953.03 1749.38L1938.23 1744.38L1948.03 1734.58L1953.03 1749.38Z" fill="#FBC2D3"/>
<path d="M1851.21 1851.21L1836.41 1846.21L1846.2 1836.41L1851.21 1851.21Z" fill="#FBC2D3"/>
<path d="M1749.38 1953.03L1734.58 1948.03L1744.38 1938.23L1749.38 1953.03Z" fill="#FBC2D3"/>
<path d="M1647.56 2054.85L1632.76 2049.85L1642.56 2040.05L1647.56 2054.85Z" fill="#FBC2D3"/>
<path d="M1545.74 2156.68L1530.94 2151.67L1540.74 2141.88L1545.74 2156.68Z" fill="#FBC2D3"/>
<path d="M1443.91 2258.5L1429.11 2253.5L1438.91 2243.7L1443.91 2258.5Z" fill="#FBC2D3"/>
<path d="M1342.09 2360.32L1327.29 2355.32L1337.09 2345.52L1342.09 2360.32Z" fill="#FBC2D3"/>
<path d="M1240.27 2462.15L1225.47 2457.14L1235.27 2447.35L1240.27 2462.15Z" fill="#FBC2D3"/>
<path d="M1138.44 2563.97L1123.64 2558.97L1133.44 2549.17L1138.44 2563.97Z" fill="#FBC2D3"/>
<path d="M2462.15 1036.62L2447.35 1031.62L2457.15 1021.82L2462.15 1036.62Z" fill="#FBC2D3"/>
<path d="M2360.32 1138.44L2345.52 1133.44L2355.32 1123.64L2360.32 1138.44Z" fill="#FBC2D3"/>
<path d="M2258.5 1240.27L2243.7 1235.26L2253.5 1225.47L2258.5 1240.27Z" fill="#FBC2D3"/>
<path d="M2156.68 1342.09L2141.88 1337.09L2151.68 1327.29L2156.68 1342.09Z" fill="#FBC2D3"/>
<path d="M2054.85 1443.91L2040.05 1438.91L2049.85 1429.11L2054.85 1443.91Z" fill="#FBC2D3"/>
<path d="M1953.03 1545.74L1938.23 1540.74L1948.03 1530.94L1953.03 1545.74Z" fill="#FBC2D3"/>
<path d="M1851.21 1647.56L1836.41 1642.56L1846.2 1632.76L1851.21 1647.56Z" fill="#FBC2D3"/>
<path d="M1749.38 1749.38L1734.58 1744.38L1744.38 1734.58L1749.38 1749.38Z" fill="#FBC2D3"/>
<path d="M1647.56 1851.21L1632.76 1846.21L1642.56 1836.41L1647.56 1851.21Z" fill="#FBC2D3"/>
<path d="M1545.74 1953.03L1530.94 1948.03L1540.74 1938.23L1545.74 1953.03Z" fill="#FBC2D3"/>
<path d="M1443.91 2054.85L1429.11 2049.85L1438.91 2040.05L1443.91 2054.85Z" fill="#FBC2D3"/>
<path d="M1342.09 2156.68L1327.29 2151.67L1337.09 2141.88L1342.09 2156.68Z" fill="#FBC2D3"/>
<path d="M1240.27 2258.5L1225.47 2253.5L1235.27 2243.7L1240.27 2258.5Z" fill="#FBC2D3"/>
<path d="M1138.44 2360.32L1123.64 2355.32L1133.44 2345.52L1138.44 2360.32Z" fill="#FBC2D3"/>
<path d="M1036.62 2462.15L1021.82 2457.15L1031.62 2447.35L1036.62 2462.15Z" fill="#FBC2D3"/>
<path d="M2360.32 934.794L2345.52 929.794L2355.32 919.996L2360.32 934.794Z" fill="#FBC2D3"/>
<path d="M2258.5 1036.62L2243.7 1031.62L2253.5 1021.82L2258.5 1036.62Z" fill="#FBC2D3"/>
<path d="M2156.68 1138.44L2141.88 1133.44L2151.67 1123.64L2156.68 1138.44Z" fill="#FBC2D3"/>
<path d="M2054.85 1240.26L2040.05 1235.26L2049.85 1225.47L2054.85 1240.26Z" fill="#FBC2D3"/>
<path d="M1953.03 1342.09L1938.23 1337.09L1948.03 1327.29L1953.03 1342.09Z" fill="#FBC2D3"/>
<path d="M1851.2 1443.91L1836.41 1438.91L1846.2 1429.11L1851.2 1443.91Z" fill="#FBC2D3"/>
<path d="M1749.38 1545.73L1734.58 1540.73L1744.38 1530.94L1749.38 1545.73Z" fill="#FBC2D3"/>
<path d="M1647.56 1647.56L1632.76 1642.56L1642.56 1632.76L1647.56 1647.56Z" fill="#FBC2D3"/>
<path d="M1545.73 1749.38L1530.94 1744.38L1540.73 1734.58L1545.73 1749.38Z" fill="#FBC2D3"/>
<path d="M1443.91 1851.2L1429.11 1846.2L1438.91 1836.41L1443.91 1851.2Z" fill="#FBC2D3"/>
<path d="M1342.09 1953.03L1327.29 1948.03L1337.09 1938.23L1342.09 1953.03Z" fill="#FBC2D3"/>
<path d="M1240.27 2054.85L1225.47 2049.85L1235.26 2040.05L1240.27 2054.85Z" fill="#FBC2D3"/>
<path d="M1138.44 2156.67L1123.64 2151.67L1133.44 2141.88L1138.44 2156.67Z" fill="#FBC2D3"/>
<path d="M1036.62 2258.5L1021.82 2253.5L1031.62 2243.7L1036.62 2258.5Z" fill="#FBC2D3"/>
<path d="M934.794 2360.32L919.996 2355.32L929.794 2345.52L934.794 2360.32Z" fill="#FBC2D3"/>
<path d="M2258.5 832.971L2243.7 827.971L2253.5 818.173L2258.5 832.971Z" fill="#FBC2D3"/>
<path d="M2156.68 934.794L2141.88 929.794L2151.67 919.996L2156.68 934.794Z" fill="#FBC2D3"/>
<path d="M2054.85 1036.62L2040.05 1031.62L2049.85 1021.82L2054.85 1036.62Z" fill="#FBC2D3"/>
<path d="M1953.03 1138.44L1938.23 1133.44L1948.03 1123.64L1953.03 1138.44Z" fill="#FBC2D3"/>
<path d="M1851.21 1240.26L1836.41 1235.26L1846.2 1225.47L1851.21 1240.26Z" fill="#FBC2D3"/>
<path d="M1749.38 1342.09L1734.58 1337.09L1744.38 1327.29L1749.38 1342.09Z" fill="#FBC2D3"/>
<path d="M1647.56 1443.91L1632.76 1438.91L1642.56 1429.11L1647.56 1443.91Z" fill="#FBC2D3"/>
<path d="M1545.73 1545.73L1530.94 1540.73L1540.73 1530.94L1545.73 1545.73Z" fill="#FBC2D3"/>
<path d="M1443.91 1647.56L1429.11 1642.56L1438.91 1632.76L1443.91 1647.56Z" fill="#FBC2D3"/>
<path d="M1342.09 1749.38L1327.29 1744.38L1337.09 1734.58L1342.09 1749.38Z" fill="#FBC2D3"/>
<path d="M1240.27 1851.2L1225.47 1846.2L1235.26 1836.41L1240.27 1851.2Z" fill="#FBC2D3"/>
<path d="M1138.44 1953.03L1123.64 1948.03L1133.44 1938.23L1138.44 1953.03Z" fill="#FBC2D3"/>
<path d="M1036.62 2054.85L1021.82 2049.85L1031.62 2040.05L1036.62 2054.85Z" fill="#FBC2D3"/>
<path d="M934.795 2156.67L919.997 2151.67L929.795 2141.88L934.795 2156.67Z" fill="#FBC2D3"/>
<path d="M832.971 2258.5L818.173 2253.5L827.971 2243.7L832.971 2258.5Z" fill="#FBC2D3"/>
<path d="M2156.68 731.148L2141.88 726.147L2151.67 716.35L2156.68 731.148Z" fill="#FBC2D3"/>
<path d="M2054.85 832.971L2040.05 827.971L2049.85 818.173L2054.85 832.971Z" fill="#FBC2D3"/>
<path d="M1953.03 934.794L1938.23 929.794L1948.03 919.996L1953.03 934.794Z" fill="#FBC2D3"/>
<path d="M1851.21 1036.62L1836.41 1031.62L1846.2 1021.82L1851.21 1036.62Z" fill="#FBC2D3"/>
<path d="M1749.38 1138.44L1734.58 1133.44L1744.38 1123.64L1749.38 1138.44Z" fill="#FBC2D3"/>
<path d="M1647.56 1240.27L1632.76 1235.26L1642.56 1225.47L1647.56 1240.27Z" fill="#FBC2D3"/>
<path d="M1545.73 1342.09L1530.94 1337.09L1540.73 1327.29L1545.73 1342.09Z" fill="#FBC2D3"/>
<path d="M1443.91 1443.91L1429.11 1438.91L1438.91 1429.11L1443.91 1443.91Z" fill="#FBC2D3"/>
<path d="M1342.09 1545.73L1327.29 1540.73L1337.09 1530.94L1342.09 1545.73Z" fill="#FBC2D3"/>
<path d="M1240.27 1647.56L1225.47 1642.56L1235.26 1632.76L1240.27 1647.56Z" fill="#FBC2D3"/>
<path d="M1138.44 1749.38L1123.64 1744.38L1133.44 1734.58L1138.44 1749.38Z" fill="#FBC2D3"/>
<path d="M1036.62 1851.2L1021.82 1846.2L1031.62 1836.41L1036.62 1851.2Z" fill="#FBC2D3"/>
<path d="M934.795 1953.03L919.997 1948.03L929.795 1938.23L934.795 1953.03Z" fill="#FBC2D3"/>
<path d="M832.972 2054.85L818.174 2049.85L827.972 2040.05L832.972 2054.85Z" fill="#FBC2D3"/>
<path d="M731.148 2156.68L716.349 2151.67L726.147 2141.88L731.148 2156.68Z" fill="#FBC2D3"/>
<path d="M2054.85 629.325L2040.05 624.324L2049.85 614.526L2054.85 629.325Z" fill="#FBC2D3"/>
<path d="M1953.03 731.148L1938.23 726.147L1948.03 716.35L1953.03 731.148Z" fill="#FBC2D3"/>
<path d="M1851.21 832.971L1836.41 827.971L1846.2 818.173L1851.21 832.971Z" fill="#FBC2D3"/>
<path d="M1749.38 934.794L1734.58 929.794L1744.38 919.996L1749.38 934.794Z" fill="#FBC2D3"/>
<path d="M1647.56 1036.62L1632.76 1031.62L1642.56 1021.82L1647.56 1036.62Z" fill="#FBC2D3"/>
<path d="M1545.73 1138.44L1530.94 1133.44L1540.73 1123.64L1545.73 1138.44Z" fill="#FBC2D3"/>
<path d="M1443.91 1240.27L1429.11 1235.26L1438.91 1225.47L1443.91 1240.27Z" fill="#FBC2D3"/>
<path d="M1342.09 1342.09L1327.29 1337.09L1337.09 1327.29L1342.09 1342.09Z" fill="#FBC2D3"/>
<path d="M1240.27 1443.91L1225.47 1438.91L1235.26 1429.11L1240.27 1443.91Z" fill="#FBC2D3"/>
<path d="M1138.44 1545.73L1123.64 1540.73L1133.44 1530.94L1138.44 1545.73Z" fill="#FBC2D3"/>
<path d="M1036.62 1647.56L1021.82 1642.56L1031.62 1632.76L1036.62 1647.56Z" fill="#FBC2D3"/>
<path d="M934.795 1749.38L919.997 1744.38L929.795 1734.58L934.795 1749.38Z" fill="#FBC2D3"/>
<path d="M832.972 1851.2L818.174 1846.2L827.972 1836.41L832.972 1851.2Z" fill="#FBC2D3"/>
<path d="M731.149 1953.03L716.35 1948.03L726.148 1938.23L731.149 1953.03Z" fill="#FBC2D3"/>
<path d="M629.325 2054.85L614.526 2049.85L624.324 2040.05L629.325 2054.85Z" fill="#FBC2D3"/>
<path d="M1953.03 527.502L1938.23 522.501L1948.03 512.703L1953.03 527.502Z" fill="#FBC2D3"/>
<path d="M1851.21 629.325L1836.41 624.324L1846.2 614.526L1851.21 629.325Z" fill="#FBC2D3"/>
<path d="M1749.38 731.148L1734.58 726.147L1744.38 716.35L1749.38 731.148Z" fill="#FBC2D3"/>
<path d="M1647.56 832.971L1632.76 827.971L1642.56 818.173L1647.56 832.971Z" fill="#FBC2D3"/>
<path d="M1545.74 934.794L1530.94 929.794L1540.74 919.996L1545.74 934.794Z" fill="#FBC2D3"/>
<path d="M1443.91 1036.62L1429.11 1031.62L1438.91 1021.82L1443.91 1036.62Z" fill="#FBC2D3"/>
<path d="M1342.09 1138.44L1327.29 1133.44L1337.09 1123.64L1342.09 1138.44Z" fill="#FBC2D3"/>
<path d="M1240.27 1240.27L1225.47 1235.26L1235.26 1225.47L1240.27 1240.27Z" fill="#FBC2D3"/>
<path d="M1138.44 1342.09L1123.64 1337.09L1133.44 1327.29L1138.44 1342.09Z" fill="#FBC2D3"/>
<path d="M1036.62 1443.91L1021.82 1438.91L1031.62 1429.11L1036.62 1443.91Z" fill="#FBC2D3"/>
<path d="M934.795 1545.73L919.997 1540.73L929.795 1530.94L934.795 1545.73Z" fill="#FBC2D3"/>
<path d="M832.972 1647.56L818.174 1642.56L827.972 1632.76L832.972 1647.56Z" fill="#FBC2D3"/>
<path d="M731.149 1749.38L716.35 1744.38L726.148 1734.58L731.149 1749.38Z" fill="#FBC2D3"/>
<path d="M629.326 1851.2L614.527 1846.2L624.325 1836.41L629.326 1851.2Z" fill="#FBC2D3"/>
<path d="M527.501 1953.03L512.703 1948.03L522.501 1938.23L527.501 1953.03Z" fill="#FBC2D3"/>
<path d="M1851.21 425.678L1836.41 420.678L1846.2 410.88L1851.21 425.678Z" fill="#FBC2D3"/>
<path d="M1749.38 527.502L1734.58 522.501L1744.38 512.703L1749.38 527.502Z" fill="#FBC2D3"/>
<path d="M1647.56 629.325L1632.76 624.324L1642.56 614.526L1647.56 629.325Z" fill="#FBC2D3"/>
<path d="M1545.74 731.148L1530.94 726.147L1540.74 716.35L1545.74 731.148Z" fill="#FBC2D3"/>
<path d="M1443.91 832.971L1429.11 827.971L1438.91 818.173L1443.91 832.971Z" fill="#FBC2D3"/>
<path d="M1342.09 934.795L1327.29 929.795L1337.09 919.997L1342.09 934.795Z" fill="#FBC2D3"/>
<path d="M1240.27 1036.62L1225.47 1031.62L1235.26 1021.82L1240.27 1036.62Z" fill="#FBC2D3"/>
<path d="M1138.44 1138.44L1123.64 1133.44L1133.44 1123.64L1138.44 1138.44Z" fill="#FBC2D3"/>
<path d="M1036.62 1240.27L1021.82 1235.26L1031.62 1225.47L1036.62 1240.27Z" fill="#FBC2D3"/>
<path d="M934.795 1342.09L919.997 1337.09L929.795 1327.29L934.795 1342.09Z" fill="#FBC2D3"/>
<path d="M832.972 1443.91L818.174 1438.91L827.972 1429.11L832.972 1443.91Z" fill="#FBC2D3"/>
<path d="M731.149 1545.73L716.35 1540.73L726.148 1530.94L731.149 1545.73Z" fill="#FBC2D3"/>
<path d="M629.326 1647.56L614.527 1642.56L624.325 1632.76L629.326 1647.56Z" fill="#FBC2D3"/>
<path d="M527.502 1749.38L512.704 1744.38L522.502 1734.58L527.502 1749.38Z" fill="#FBC2D3"/>
<path d="M425.678 1851.21L410.88 1846.21L420.678 1836.41L425.678 1851.21Z" fill="#FBC2D3"/>
<path d="M1749.38 323.855L1734.58 318.855L1744.38 309.057L1749.38 323.855Z" fill="#FBC2D3"/>
<path d="M1647.56 425.678L1632.76 420.678L1642.56 410.88L1647.56 425.678Z" fill="#FBC2D3"/>
<path d="M1545.74 527.502L1530.94 522.501L1540.74 512.703L1545.74 527.502Z" fill="#FBC2D3"/>
<path d="M1443.91 629.325L1429.11 624.324L1438.91 614.526L1443.91 629.325Z" fill="#FBC2D3"/>
<path d="M1342.09 731.148L1327.29 726.147L1337.09 716.35L1342.09 731.148Z" fill="#FBC2D3"/>
<path d="M1240.27 832.972L1225.47 827.972L1235.26 818.174L1240.27 832.972Z" fill="#FBC2D3"/>
<path d="M1138.44 934.795L1123.64 929.795L1133.44 919.997L1138.44 934.795Z" fill="#FBC2D3"/>
<path d="M1036.62 1036.62L1021.82 1031.62L1031.62 1021.82L1036.62 1036.62Z" fill="#FBC2D3"/>
<path d="M934.795 1138.44L919.997 1133.44L929.795 1123.64L934.795 1138.44Z" fill="#FBC2D3"/>
<path d="M832.972 1240.27L818.174 1235.26L827.972 1225.47L832.972 1240.27Z" fill="#FBC2D3"/>
<path d="M731.149 1342.09L716.35 1337.09L726.148 1327.29L731.149 1342.09Z" fill="#FBC2D3"/>
<path d="M629.326 1443.91L614.527 1438.91L624.325 1429.11L629.326 1443.91Z" fill="#FBC2D3"/>
<path d="M527.502 1545.73L512.704 1540.73L522.502 1530.94L527.502 1545.73Z" fill="#FBC2D3"/>
<path d="M425.679 1647.56L410.881 1642.56L420.679 1632.76L425.679 1647.56Z" fill="#FBC2D3"/>
<path d="M323.855 1749.38L309.056 1744.38L318.854 1734.58L323.855 1749.38Z" fill="#FBC2D3"/>
<path d="M1647.56 222.032L1632.76 217.031L1642.56 207.233L1647.56 222.032Z" fill="#FBC2D3"/>
<path d="M1545.74 323.855L1530.94 318.855L1540.74 309.057L1545.74 323.855Z" fill="#FBC2D3"/>
<path d="M1443.91 425.678L1429.11 420.678L1438.91 410.88L1443.91 425.678Z" fill="#FBC2D3"/>
<path d="M1342.09 527.502L1327.29 522.501L1337.09 512.703L1342.09 527.502Z" fill="#FBC2D3"/>
<path d="M1240.27 629.325L1225.47 624.324L1235.27 614.526L1240.27 629.325Z" fill="#FBC2D3"/>
<path d="M1138.44 731.149L1123.64 726.148L1133.44 716.351L1138.44 731.149Z" fill="#FBC2D3"/>
<path d="M1036.62 832.972L1021.82 827.972L1031.62 818.174L1036.62 832.972Z" fill="#FBC2D3"/>
<path d="M934.795 934.795L919.997 929.795L929.795 919.997L934.795 934.795Z" fill="#FBC2D3"/>
<path d="M832.972 1036.62L818.174 1031.62L827.972 1021.82L832.972 1036.62Z" fill="#FBC2D3"/>
<path d="M731.149 1138.44L716.35 1133.44L726.148 1123.64L731.149 1138.44Z" fill="#FBC2D3"/>
<path d="M629.326 1240.27L614.527 1235.26L624.325 1225.47L629.326 1240.27Z" fill="#FBC2D3"/>
<path d="M527.502 1342.09L512.704 1337.09L522.502 1327.29L527.502 1342.09Z" fill="#FBC2D3"/>
<path d="M425.679 1443.91L410.881 1438.91L420.679 1429.11L425.679 1443.91Z" fill="#FBC2D3"/>
<path d="M323.856 1545.73L309.057 1540.73L318.855 1530.94L323.856 1545.73Z" fill="#FBC2D3"/>
<path d="M222.032 1647.56L207.233 1642.56L217.031 1632.76L222.032 1647.56Z" fill="#FBC2D3"/>
<path d="M1545.74 120.209L1530.94 115.208L1540.74 105.41L1545.74 120.209Z" fill="#FBC2D3"/>
<path d="M1443.91 222.032L1429.11 217.031L1438.91 207.233L1443.91 222.032Z" fill="#FBC2D3"/>
<path d="M1342.09 323.855L1327.29 318.855L1337.09 309.057L1342.09 323.855Z" fill="#FBC2D3"/>
<path d="M1240.27 425.678L1225.47 420.678L1235.27 410.88L1240.27 425.678Z" fill="#FBC2D3"/>
<path d="M1138.44 527.502L1123.64 522.501L1133.44 512.703L1138.44 527.502Z" fill="#FBC2D3"/>
<path d="M1036.62 629.326L1021.82 624.325L1031.62 614.527L1036.62 629.326Z" fill="#FBC2D3"/>
<path d="M934.795 731.149L919.997 726.148L929.795 716.351L934.795 731.149Z" fill="#FBC2D3"/>
<path d="M832.972 832.972L818.174 827.972L827.972 818.174L832.972 832.972Z" fill="#FBC2D3"/>
<path d="M731.149 934.795L716.35 929.795L726.148 919.997L731.149 934.795Z" fill="#FBC2D3"/>
<path d="M629.326 1036.62L614.527 1031.62L624.325 1021.82L629.326 1036.62Z" fill="#FBC2D3"/>
<path d="M527.502 1138.44L512.704 1133.44L522.502 1123.64L527.502 1138.44Z" fill="#FBC2D3"/>
<path d="M425.679 1240.27L410.881 1235.26L420.679 1225.47L425.679 1240.27Z" fill="#FBC2D3"/>
<path d="M323.856 1342.09L309.057 1337.09L318.855 1327.29L323.856 1342.09Z" fill="#FBC2D3"/>
<path d="M222.033 1443.91L207.234 1438.91L217.032 1429.11L222.033 1443.91Z" fill="#FBC2D3"/>
<path d="M120.208 1545.74L105.41 1540.74L115.208 1530.94L120.208 1545.74Z" fill="#FBC2D3"/>
<path d="M1443.91 18.3843L1429.11 13.3838L1438.91 3.58586L1443.91 18.3843Z" fill="#FBC2D3"/>
<path d="M1342.09 120.208L1327.29 115.207L1337.09 105.409L1342.09 120.208Z" fill="#FBC2D3"/>
<path d="M1240.27 222.031L1225.47 217.03L1235.26 207.232L1240.27 222.031Z" fill="#FBC2D3"/>
<path d="M1138.44 323.854L1123.64 318.854L1133.44 309.056L1138.44 323.854Z" fill="#FBC2D3"/>
<path d="M1036.62 425.677L1021.82 420.677L1031.62 410.879L1036.62 425.677Z" fill="#FBC2D3"/>
<path d="M934.794 527.502L919.996 522.501L929.794 512.703L934.794 527.502Z" fill="#FBC2D3"/>
<path d="M832.971 629.325L818.173 624.324L827.971 614.526L832.971 629.325Z" fill="#FBC2D3"/>
<path d="M731.148 731.148L716.349 726.147L726.147 716.35L731.148 731.148Z" fill="#FBC2D3"/>
<path d="M629.325 832.971L614.526 827.971L624.324 818.173L629.325 832.971Z" fill="#FBC2D3"/>
<path d="M527.501 934.794L512.703 929.794L522.501 919.996L527.501 934.794Z" fill="#FBC2D3"/>
<path d="M425.678 1036.62L410.88 1031.62L420.678 1021.82L425.678 1036.62Z" fill="#FBC2D3"/>
<path d="M323.855 1138.44L309.056 1133.44L318.854 1123.64L323.855 1138.44Z" fill="#FBC2D3"/>
<path d="M222.032 1240.26L207.233 1235.26L217.031 1225.47L222.032 1240.26Z" fill="#FBC2D3"/>
<path d="M120.208 1342.09L105.41 1337.09L115.208 1327.29L120.208 1342.09Z" fill="#FBC2D3"/>
<path d="M18.3842 1443.91L3.58575 1438.91L13.3837 1429.11L18.3842 1443.91Z" fill="#FBC2D3"/>
</g>
<defs>
<clipPath id="clip0_338_8828">
<rect width="2032" height="2032" fill="white" transform="translate(2873.68 1436.84) rotate(135)"/>
</clipPath>
</defs>
</svg>
