<svg width="674" height="47" viewBox="0 0 674 47" fill="none" xmlns="http://www.w3.org/2000/svg">
<path d="M432.538 45.3793L432.864 45.659L433.189 45.3793L480.685 4.59493L528.181 45.3793L528.506 45.659L528.832 45.3794L576.342 4.59489L623.838 45.3793L624.164 45.659L624.49 45.3794L672.326 4.31527L672.669 4.02094L672.41 3.65013L671.41 2.21425L671.093 1.75824L670.673 2.12205L624.162 42.4039L576.668 1.62066L576.343 1.341L576.017 1.62061L528.506 42.4051L481.011 1.62066L480.685 1.34095L480.359 1.62066L432.864 42.4051L385.368 1.62066L385.042 1.34095L384.716 1.62066L337.221 42.4051L289.725 1.62066L289.399 1.34095L289.074 1.62066L241.578 42.4051L194.082 1.62066L193.757 1.34095L193.431 1.62066L145.935 42.4051L98.4395 1.62066L98.1138 1.34095L97.7881 1.62066L50.2924 42.4051L3.28249 2.03133L2.90307 1.70548L2.57732 2.08498L1.6206 3.19958L1.29503 3.57888L1.67424 3.90455L49.9666 45.3793L50.2924 45.6591L50.6181 45.3793L98.1138 4.59493L145.609 45.3793L145.935 45.659L146.261 45.3793L193.757 4.59492L241.252 45.3793L241.578 45.659L241.904 45.3793L289.399 4.59493L336.895 45.3793L337.221 45.659L337.547 45.3793L385.042 4.59493L432.538 45.3793Z" fill="#F6F6F6" stroke="#212121"/>
</svg>
