<svg width="366" height="23" viewBox="0 0 366 23" fill="none" xmlns="http://www.w3.org/2000/svg">
<path d="M235.367 23L209.244 1.03547L183.121 23L156.997 1.03547L130.874 23L104.751 1.03547L78.6273 23L52.504 1.03547L26.3806 23L0 0.815825L0.522627 0.219645L26.3806 21.9645L52.504 0L78.6273 21.9645L104.751 0L130.874 21.9645L156.997 0L183.121 21.9645L209.244 0L235.367 21.9645L261.491 0L287.614 21.9645L313.745 0L339.869 21.9645L365.454 0.267442L366 1.03547L339.869 23L313.745 1.03547L287.614 23L261.491 1.03547L235.367 23Z" fill="#F6F6F6"/>
</svg>
